Armada-Light.ufo
<glyph name="exclam" format="1">
  <advance width="252"/>
  <unicode hex="0021"/>
  <outline>
    <contour>
      <point x="148" y="211" type="line"/>
      <point x="104" y="211" type="line"/>
      <point x="104" y="720" type="line"/>
      <point x="148" y="720" type="line"/>
    </contour>
    <contour>
      <point x="150" y="0" type="line"/>
      <point x="102" y="0" type="line"/>
      <point x="102" y="107" type="line"/>
      <point x="150" y="107" type="line"/>
    </contour>
  </outline>
</glyph>
<glyph name="quotedbl" format="1">
  <advance width="434"/>
  <unicode hex="0022"/>
  <outline>
    <contour>
      <point x="340" y="480" type="line"/>
      <point x="294" y="480" type="line"/>
      <point x="294" y="720" type="line"/>
      <point x="340" y="720" type="line"/>
    </contour>
    <contour>
      <point x="140" y="480" type="line"/>
      <point x="94" y="480" type="line"/>
      <point x="94" y="720" type="line"/>
      <point x="140" y="720" type="line"/>
    </contour>
  </outline>
</glyph>
<glyph name="numbersign" format="1">
  <advance width="756"/>
  <unicode hex="0023"/>
  <outline>
    <contour>
      <point x="686" y="190" type="line"/>
      <point x="542" y="190" type="line"/>
      <point x="542" y="0" type="line"/>
      <point x="498" y="0" type="line"/>
      <point x="498" y="190" type="line"/>
      <point x="258" y="190" type="line"/>
      <point x="258" y="0" type="line"/>
      <point x="214" y="0" type="line"/>
      <point x="214" y="190" type="line"/>
      <point x="70" y="190" type="line"/>
      <point x="70" y="232" type="line"/>
      <point x="214" y="232" type="line"/>
      <point x="214" y="490" type="line"/>
      <point x="70" y="490" type="line"/>
      <point x="70" y="532" type="line"/>
      <point x="214" y="532" type="line"/>
      <point x="214" y="720" type="line"/>
      <point x="258" y="720" type="line"/>
      <point x="258" y="532" type="line"/>
      <point x="498" y="532" type="line"/>
      <point x="498" y="720" type="line"/>
      <point x="542" y="720" type="line"/>
      <point x="542" y="532" type="line"/>
      <point x="686" y="532" type="line"/>
      <point x="686" y="490" type="line"/>
      <point x="542" y="490" type="line"/>
      <point x="542" y="232" type="line"/>
      <point x="686" y="232" type="line"/>
    </contour>
    <contour>
      <point x="498" y="232" type="line"/>
      <point x="498" y="490" type="line"/>
      <point x="258" y="490" type="line"/>
      <point x="258" y="232" type="line"/>
    </contour>
  </outline>
</glyph>
<glyph name="dollar" format="1">
  <advance width="694"/>
  <unicode hex="0024"/>
  <outline>
    <contour>
      <point x="599" y="69" type="line"/>
      <point x="531" y="17"/>
      <point x="447" y="-3"/>
      <point x="373" y="-6" type="curve"/>
      <point x="373" y="-125" type="line"/>
      <point x="327" y="-125" type="line"/>
      <point x="327" y="-6" type="line"/>
      <point x="253" y="-3"/>
      <point x="169" y="17"/>
      <point x="101" y="69" type="curve"/>
      <point x="101" y="193" type="line"/>
      <point x="147" y="193" type="line"/>
      <point x="147" y="94" type="line"/>
      <point x="209" y="50"/>
      <point x="280" y="36"/>
      <point x="350" y="36" type="curve" smooth="yes"/>
      <point x="420" y="36"/>
      <point x="492" y="50"/>
      <point x="553" y="94" type="curve"/>
      <point x="553" y="246" type="line"/>
      <point x="104" y="432" type="line"/>
      <point x="104" y="650" type="line"/>
      <point x="172" y="703"/>
      <point x="254" y="723"/>
      <point x="327" y="726" type="curve"/>
      <point x="327" y="820" type="line"/>
      <point x="373" y="820" type="line"/>
      <point x="373" y="726" type="line"/>
      <point x="446" y="723"/>
      <point x="528" y="703"/>
      <point x="596" y="650" type="curve"/>
      <point x="596" y="527" type="line"/>
      <point x="551" y="527" type="line"/>
      <point x="551" y="625" type="line"/>
      <point x="489" y="669"/>
      <point x="420" y="684"/>
      <point x="350" y="684" type="curve" smooth="yes"/>
      <point x="280" y="684"/>
      <point x="211" y="669"/>
      <point x="150" y="625" type="curve"/>
      <point x="150" y="463" type="line"/>
      <point x="599" y="276" type="line"/>
    </contour>
  </outline>
</glyph>
<glyph name="percent" format="1">
  <advance width="1109"/>
  <unicode hex="0025"/>
  <outline>
    <contour>
      <point x="1019" y="56" type="line"/>
      <point x="972" y="13"/>
      <point x="912" y="-10"/>
      <point x="844" y="-10" type="curve" smooth="yes"/>
      <point x="776" y="-10"/>
      <point x="716" y="13"/>
      <point x="670" y="56" type="curve"/>
      <point x="670" y="320" type="line"/>
      <point x="716" y="363"/>
      <point x="776" y="386"/>
      <point x="844" y="386" type="curve" smooth="yes"/>
      <point x="912" y="386"/>
      <point x="972" y="363"/>
      <point x="1019" y="320" type="curve"/>
    </contour>
    <contour>
      <point x="763" y="720" type="line"/>
      <point x="392" y="0" type="line"/>
      <point x="346" y="0" type="line"/>
      <point x="717" y="720" type="line"/>
    </contour>
    <contour>
      <point x="439" y="400" type="line"/>
      <point x="393" y="357"/>
      <point x="333" y="334"/>
      <point x="265" y="334" type="curve" smooth="yes"/>
      <point x="197" y="334"/>
      <point x="137" y="357"/>
      <point x="90" y="400" type="curve"/>
      <point x="90" y="664" type="line"/>
      <point x="137" y="707"/>
      <point x="197" y="730"/>
      <point x="265" y="730" type="curve" smooth="yes"/>
      <point x="333" y="730"/>
      <point x="393" y="707"/>
      <point x="439" y="664" type="curve"/>
    </contour>
    <contour>
      <point x="977" y="74" type="curve"/>
      <point x="977" y="301" type="line"/>
      <point x="937" y="336"/>
      <point x="891" y="348"/>
      <point x="844" y="348" type="curve" smooth="yes"/>
      <point x="797" y="348"/>
      <point x="751" y="336"/>
      <point x="711" y="301" type="curve"/>
      <point x="711" y="74" type="line"/>
      <point x="751" y="40"/>
      <point x="797" y="28"/>
      <point x="844" y="28" type="curve" smooth="yes"/>
      <point x="891" y="28"/>
      <point x="937" y="40"/>
    </contour>
    <contour>
      <point x="398" y="419" type="curve"/>
      <point x="398" y="646" type="line"/>
      <point x="358" y="680"/>
      <point x="312" y="692"/>
      <point x="265" y="692" type="curve" smooth="yes"/>
      <point x="218" y="692"/>
      <point x="172" y="680"/>
      <point x="131" y="646" type="curve"/>
      <point x="131" y="419" type="line"/>
      <point x="172" y="384"/>
      <point x="218" y="372"/>
      <point x="265" y="372" type="curve" smooth="yes"/>
      <point x="312" y="372"/>
      <point x="358" y="384"/>
    </contour>
  </outline>
</glyph>
<glyph name="ampersand" format="1">
  <advance width="761"/>
  <unicode hex="0026"/>
  <outline>
    <contour>
      <point x="685" y="352" type="line"/>
      <point x="607" y="352" type="line"/>
      <point x="607" y="56" type="line"/>
      <point x="537" y="8"/>
      <point x="447" y="-10"/>
      <point x="348" y="-10" type="curve" smooth="yes"/>
      <point x="255" y="-10"/>
      <point x="154" y="15"/>
      <point x="90" y="75" type="curve"/>
      <point x="90" y="294" type="line"/>
      <point x="132" y="339"/>
      <point x="194" y="367"/>
      <point x="245" y="372" type="curve"/>
      <point x="194" y="380"/>
      <point x="137" y="406"/>
      <point x="97" y="449" type="curve"/>
      <point x="97" y="641" type="line"/>
      <point x="161" y="703"/>
      <point x="260" y="730"/>
      <point x="351" y="730" type="curve" smooth="yes"/>
      <point x="448" y="730"/>
      <point x="538" y="711"/>
      <point x="608" y="660" type="curve"/>
      <point x="608" y="527" type="line"/>
      <point x="562" y="527" type="line"/>
      <point x="562" y="635" type="line"/>
      <point x="506" y="673"/>
      <point x="430" y="687"/>
      <point x="351" y="687" type="curve" smooth="yes"/>
      <point x="280" y="687"/>
      <point x="195" y="668"/>
      <point x="143" y="620" type="curve"/>
      <point x="143" y="465" type="line"/>
      <point x="190" y="413"/>
      <point x="259" y="392"/>
      <point x="348" y="392" type="curve" smooth="yes"/>
      <point x="685" y="392" type="line"/>
    </contour>
    <contour>
      <point x="562" y="80" type="curve"/>
      <point x="562" y="352" type="line"/>
      <point x="344" y="352" type="line" smooth="yes"/>
      <point x="255" y="352"/>
      <point x="190" y="333"/>
      <point x="136" y="279" type="curve"/>
      <point x="136" y="94" type="line"/>
      <point x="189" y="50"/>
      <point x="277" y="33"/>
      <point x="348" y="33" type="curve" smooth="yes"/>
      <point x="428" y="33"/>
      <point x="504" y="45"/>
    </contour>
  </outline>
</glyph>
<glyph name="quotesingle" format="1">
  <advance width="234"/>
  <unicode hex="0027"/>
  <outline>
    <contour>
      <point x="140" y="480" type="line"/>
      <point x="94" y="480" type="line"/>
      <point x="94" y="720" type="line"/>
      <point x="140" y="720" type="line"/>
    </contour>
  </outline>
</glyph>
<glyph name="parenleft" format="1">
  <advance width="370"/>
  <unicode hex="0028"/>
  <outline>
    <contour>
      <point x="291" y="-10" type="line"/>
      <point x="216" y="-6"/>
      <point x="146" y="32"/>
      <point x="105" y="78" type="curve"/>
      <point x="105" y="642" type="line"/>
      <point x="146" y="688"/>
      <point x="216" y="726"/>
      <point x="291" y="730" type="curve"/>
      <point x="291" y="685" type="line"/>
      <point x="236" y="680"/>
      <point x="181" y="653"/>
      <point x="151" y="620" type="curve"/>
      <point x="151" y="100" type="line"/>
      <point x="181" y="67"/>
      <point x="236" y="40"/>
      <point x="291" y="35" type="curve"/>
    </contour>
  </outline>
</glyph>
<glyph name="parenright" format="1">
  <advance width="370"/>
  <unicode hex="0029"/>
  <outline>
    <contour>
      <point x="265" y="78" type="line"/>
      <point x="224" y="32"/>
      <point x="154" y="-6"/>
      <point x="79" y="-10" type="curve"/>
      <point x="79" y="35" type="line"/>
      <point x="135" y="40"/>
      <point x="190" y="67"/>
      <point x="219" y="100" type="curve"/>
      <point x="219" y="620" type="line"/>
      <point x="190" y="653"/>
      <point x="135" y="680"/>
      <point x="79" y="685" type="curve"/>
      <point x="79" y="730" type="line"/>
      <point x="154" y="726"/>
      <point x="224" y="688"/>
      <point x="265" y="642" type="curve"/>
    </contour>
  </outline>
</glyph>
<glyph name="asterisk" format="1">
  <advance width="615"/>
  <unicode hex="002A"/>
  <outline>
    <contour>
      <point x="519" y="238" type="line"/>
      <point x="476" y="238" type="line"/>
      <point x="476" y="348" type="line"/>
      <point x="451" y="377"/>
      <point x="401" y="402"/>
      <point x="328" y="410" type="curve"/>
      <point x="328" y="140" type="line"/>
      <point x="287" y="140" type="line"/>
      <point x="287" y="410" type="line"/>
      <point x="214" y="402"/>
      <point x="165" y="377"/>
      <point x="140" y="348" type="curve"/>
      <point x="140" y="238" type="line"/>
      <point x="96" y="238" type="line"/>
      <point x="96" y="360" type="line"/>
      <point x="129" y="397"/>
      <point x="186" y="421"/>
      <point x="236" y="430" type="curve"/>
      <point x="186" y="439"/>
      <point x="129" y="464"/>
      <point x="96" y="500" type="curve"/>
      <point x="96" y="622" type="line"/>
      <point x="140" y="622" type="line"/>
      <point x="140" y="512" type="line"/>
      <point x="165" y="484"/>
      <point x="214" y="459"/>
      <point x="287" y="450" type="curve"/>
      <point x="287" y="720" type="line"/>
      <point x="328" y="720" type="line"/>
      <point x="328" y="450" type="line"/>
      <point x="401" y="459"/>
      <point x="451" y="484"/>
      <point x="476" y="512" type="curve"/>
      <point x="476" y="622" type="line"/>
      <point x="519" y="622" type="line"/>
      <point x="519" y="500" type="line"/>
      <point x="487" y="464"/>
      <point x="429" y="439"/>
      <point x="380" y="430" type="curve"/>
      <point x="429" y="421"/>
      <point x="487" y="397"/>
      <point x="519" y="360" type="curve"/>
    </contour>
  </outline>
</glyph>
<glyph name="plus" format="1">
  <advance width="538"/>
  <unicode hex="002B"/>
  <outline>
    <contour>
      <point x="482" y="349" type="line"/>
      <point x="291" y="349" type="line"/>
      <point x="291" y="154" type="line"/>
      <point x="247" y="154" type="line"/>
      <point x="247" y="349" type="line"/>
      <point x="56" y="349" type="line"/>
      <point x="56" y="391" type="line"/>
      <point x="247" y="391" type="line"/>
      <point x="247" y="586" type="line"/>
      <point x="291" y="586" type="line"/>
      <point x="291" y="391" type="line"/>
      <point x="482" y="391" type="line"/>
    </contour>
  </outline>
</glyph>
<glyph name="comma" format="1">
  <advance width="228"/>
  <unicode hex="002C"/>
  <outline>
    <contour>
      <point x="146" y="107" type="line"/>
      <point x="112" y="-82" type="line"/>
      <point x="67" y="-82" type="line"/>
      <point x="100" y="107" type="line"/>
    </contour>
  </outline>
</glyph>
<glyph name="period" format="1">
  <advance width="228"/>
  <unicode hex="002E"/>
  <outline>
    <contour>
      <point x="138" y="0" type="line"/>
      <point x="90" y="0" type="line"/>
      <point x="90" y="107" type="line"/>
      <point x="138" y="107" type="line"/>
    </contour>
  </outline>
</glyph>
<glyph name="slash" format="1">
  <advance width="476"/>
  <unicode hex="002F"/>
  <outline>
    <contour>
      <point x="406" y="720" type="line"/>
      <point x="116" y="0" type="line"/>
      <point x="70" y="0" type="line"/>
      <point x="360" y="720" type="line"/>
    </contour>
  </outline>
</glyph>
<glyph name="zero" format="1">
  <advance width="752"/>
  <unicode hex="0030"/>
  <outline>
    <contour>
      <point x="647" y="84" type="line"/>
      <point x="570" y="22"/>
      <point x="474" y="-10"/>
      <point x="376" y="-10" type="curve" smooth="yes"/>
      <point x="278" y="-10"/>
      <point x="183" y="22"/>
      <point x="105" y="84" type="curve"/>
      <point x="105" y="637" type="line"/>
      <point x="183" y="698"/>
      <point x="278" y="730"/>
      <point x="376" y="730" type="curve" smooth="yes"/>
      <point x="474" y="730"/>
      <point x="570" y="698"/>
      <point x="647" y="637" type="curve"/>
    </contour>
    <contour>
      <point x="601" y="107" type="curve"/>
      <point x="601" y="613" type="line"/>
      <point x="537" y="662"/>
      <point x="466" y="687"/>
      <point x="376" y="687" type="curve" smooth="yes"/>
      <point x="286" y="687"/>
      <point x="216" y="662"/>
      <point x="151" y="613" type="curve"/>
      <point x="151" y="107" type="line"/>
      <point x="216" y="58"/>
      <point x="286" y="33"/>
      <point x="376" y="33" type="curve" smooth="yes"/>
      <point x="466" y="33"/>
      <point x="537" y="58"/>
    </contour>
  </outline>
</glyph>
<glyph name="one" format="1">
  <advance width="476"/>
  <unicode hex="0031"/>
  <outline>
    <contour>
      <point x="416" y="0" type="line"/>
      <point x="70" y="0" type="line"/>
      <point x="70" y="42" type="line"/>
      <point x="220" y="42" type="line"/>
      <point x="220" y="677" type="line"/>
      <point x="80" y="677" type="line"/>
      <point x="80" y="720" type="line"/>
      <point x="265" y="720" type="line"/>
      <point x="265" y="42" type="line"/>
      <point x="416" y="42" type="line"/>
    </contour>
  </outline>
</glyph>
<glyph name="two" format="1">
  <advance width="655"/>
  <unicode hex="0032"/>
  <outline>
    <contour>
      <point x="568" y="0" type="line"/>
      <point x="80" y="0" type="line"/>
      <point x="80" y="36" type="line"/>
      <point x="520" y="501" type="line"/>
      <point x="520" y="623" type="line"/>
      <point x="465" y="667"/>
      <point x="396" y="687"/>
      <point x="325" y="687" type="curve" smooth="yes"/>
      <point x="253" y="687"/>
      <point x="184" y="667"/>
      <point x="130" y="623" type="curve"/>
      <point x="130" y="527" type="line"/>
      <point x="84" y="527" type="line"/>
      <point x="84" y="648" type="line"/>
      <point x="156" y="707"/>
      <point x="244" y="730"/>
      <point x="325" y="730" type="curve" smooth="yes"/>
      <point x="408" y="730"/>
      <point x="495" y="707"/>
      <point x="566" y="648" type="curve"/>
      <point x="566" y="487" type="line"/>
      <point x="146" y="43" type="line"/>
      <point x="146" y="43" type="line"/>
      <point x="568" y="43" type="line"/>
    </contour>
  </outline>
</glyph>
<glyph name="three" format="1">
  <advance width="716"/>
  <unicode hex="0033"/>
  <outline>
    <contour>
      <point x="609" y="72" type="line"/>
      <point x="538" y="13"/>
      <point x="441" y="-10"/>
      <point x="355" y="-10" type="curve" smooth="yes"/>
      <point x="270" y="-10"/>
      <point x="172" y="13"/>
      <point x="101" y="72" type="curve"/>
      <point x="101" y="193" type="line"/>
      <point x="146" y="193" type="line"/>
      <point x="146" y="97" type="line"/>
      <point x="201" y="53"/>
      <point x="280" y="33"/>
      <point x="355" y="33" type="curve" smooth="yes"/>
      <point x="428" y="33"/>
      <point x="508" y="53"/>
      <point x="563" y="97" type="curve"/>
      <point x="563" y="275" type="line"/>
      <point x="509" y="330"/>
      <point x="446" y="348"/>
      <point x="357" y="348" type="curve" smooth="yes"/>
      <point x="282" y="348" type="line"/>
      <point x="282" y="391" type="line"/>
      <point x="353" y="391" type="line" smooth="yes"/>
      <point x="442" y="391"/>
      <point x="512" y="412"/>
      <point x="559" y="464" type="curve"/>
      <point x="559" y="623" type="line"/>
      <point x="504" y="667"/>
      <point x="427" y="687"/>
      <point x="353" y="687" type="curve" smooth="yes"/>
      <point x="279" y="687"/>
      <point x="201" y="667"/>
      <point x="147" y="623" type="curve"/>
      <point x="147" y="527" type="line"/>
      <point x="101" y="527" type="line"/>
      <point x="101" y="648" type="line"/>
      <point x="173" y="707"/>
      <point x="269" y="730"/>
      <point x="353" y="730" type="curve" smooth="yes"/>
      <point x="440" y="730"/>
      <point x="534" y="707"/>
      <point x="605" y="648" type="curve"/>
      <point x="605" y="447" type="line"/>
      <point x="565" y="404"/>
      <point x="507" y="378"/>
      <point x="456" y="370" type="curve"/>
      <point x="507" y="363"/>
      <point x="569" y="335"/>
      <point x="609" y="292" type="curve"/>
    </contour>
  </outline>
</glyph>
<glyph name="four" format="1">
  <advance width="721"/>
  <unicode hex="0034"/>
  <outline>
    <contour>
      <point x="601" y="0" type="line"/>
      <point x="555" y="0" type="line"/>
      <point x="555" y="251" type="line"/>
      <point x="110" y="251" type="line"/>
      <point x="110" y="720" type="line"/>
      <point x="156" y="720" type="line"/>
      <point x="156" y="295" type="line"/>
      <point x="555" y="295" type="line"/>
      <point x="555" y="720" type="line"/>
      <point x="601" y="720" type="line"/>
    </contour>
  </outline>
</glyph>
<glyph name="five" format="1">
  <advance width="699"/>
  <unicode hex="0035"/>
  <outline>
    <contour>
      <point x="606" y="68" type="line"/>
      <point x="535" y="12"/>
      <point x="444" y="-10"/>
      <point x="358" y="-10" type="curve" smooth="yes"/>
      <point x="273" y="-10"/>
      <point x="182" y="11"/>
      <point x="110" y="68" type="curve"/>
      <point x="110" y="193" type="line"/>
      <point x="156" y="193" type="line"/>
      <point x="156" y="94" type="line"/>
      <point x="210" y="51"/>
      <point x="283" y="33"/>
      <point x="358" y="33" type="curve" smooth="yes"/>
      <point x="431" y="33"/>
      <point x="505" y="51"/>
      <point x="560" y="94" type="curve"/>
      <point x="560" y="317" type="line"/>
      <point x="508" y="365"/>
      <point x="441" y="380"/>
      <point x="359" y="380" type="curve" smooth="yes"/>
      <point x="116" y="380" type="line"/>
      <point x="116" y="720" type="line"/>
      <point x="605" y="720" type="line"/>
      <point x="605" y="676" type="line"/>
      <point x="161" y="676" type="line"/>
      <point x="161" y="423" type="line"/>
      <point x="359" y="423" type="line" smooth="yes"/>
      <point x="459" y="423"/>
      <point x="541" y="403"/>
      <point x="606" y="341" type="curve"/>
    </contour>
  </outline>
</glyph>
<glyph name="six" format="1">
  <advance width="722"/>
  <unicode hex="0036"/>
  <outline>
    <contour>
      <point x="619" y="80" type="line"/>
      <point x="551" y="14"/>
      <point x="445" y="-10"/>
      <point x="362" y="-10" type="curve" smooth="yes"/>
      <point x="280" y="-10"/>
      <point x="174" y="14"/>
      <point x="105" y="80" type="curve"/>
      <point x="105" y="648" type="line"/>
      <point x="176" y="707"/>
      <point x="276" y="730"/>
      <point x="362" y="730" type="curve" smooth="yes"/>
      <point x="447" y="730"/>
      <point x="546" y="709"/>
      <point x="618" y="652" type="curve"/>
      <point x="618" y="527" type="line"/>
      <point x="572" y="527" type="line"/>
      <point x="572" y="625" type="line"/>
      <point x="519" y="667"/>
      <point x="439" y="687"/>
      <point x="362" y="687" type="curve" smooth="yes"/>
      <point x="289" y="687"/>
      <point x="206" y="667"/>
      <point x="151" y="623" type="curve"/>
      <point x="151" y="364" type="line"/>
      <point x="203" y="399"/>
      <point x="289" y="421"/>
      <point x="365" y="421" type="curve" smooth="yes"/>
      <point x="459" y="421"/>
      <point x="562" y="395"/>
      <point x="619" y="339" type="curve"/>
    </contour>
    <contour>
      <point x="573" y="100" type="curve"/>
      <point x="573" y="317" type="line"/>
      <point x="527" y="360"/>
      <point x="447" y="378"/>
      <point x="362" y="378" type="curve" smooth="yes"/>
      <point x="286" y="378"/>
      <point x="208" y="359"/>
      <point x="151" y="317" type="curve"/>
      <point x="151" y="100" type="line"/>
      <point x="204" y="54"/>
      <point x="290" y="33"/>
      <point x="362" y="33" type="curve" smooth="yes"/>
      <point x="435" y="32"/>
      <point x="520" y="54"/>
    </contour>
  </outline>
</glyph>
<glyph name="seven" format="1">
  <advance width="605"/>
  <unicode hex="0037"/>
  <outline>
    <contour>
      <point x="536" y="680" type="line"/>
      <point x="226" y="0" type="line"/>
      <point x="177" y="0" type="line"/>
      <point x="488" y="677" type="line"/>
      <point x="60" y="677" type="line"/>
      <point x="60" y="720" type="line"/>
      <point x="536" y="720" type="line"/>
    </contour>
  </outline>
</glyph>
<glyph name="eight" format="1">
  <advance width="745"/>
  <unicode hex="0038"/>
  <outline>
    <contour>
      <point x="628" y="77" type="line"/>
      <point x="554" y="15"/>
      <point x="465" y="-10"/>
      <point x="366" y="-10" type="curve" smooth="yes"/>
      <point x="268" y="-10"/>
      <point x="179" y="15"/>
      <point x="105" y="77" type="curve"/>
      <point x="105" y="294" type="line"/>
      <point x="151" y="337"/>
      <point x="220" y="364"/>
      <point x="276" y="370" type="curve"/>
      <point x="220" y="380"/>
      <point x="157" y="404"/>
      <point x="114" y="446" type="curve"/>
      <point x="114" y="643" type="line"/>
      <point x="190" y="708"/>
      <point x="279" y="730"/>
      <point x="366" y="730" type="curve" smooth="yes"/>
      <point x="454" y="730"/>
      <point x="543" y="708"/>
      <point x="619" y="643" type="curve"/>
      <point x="619" y="446" type="line"/>
      <point x="577" y="404"/>
      <point x="513" y="380"/>
      <point x="457" y="370" type="curve"/>
      <point x="513" y="364"/>
      <point x="582" y="337"/>
      <point x="628" y="294" type="curve"/>
    </contour>
    <contour>
      <point x="573" y="460" type="curve"/>
      <point x="573" y="625" type="line"/>
      <point x="512" y="672"/>
      <point x="438" y="687"/>
      <point x="366" y="687" type="curve" smooth="yes"/>
      <point x="295" y="687"/>
      <point x="221" y="672"/>
      <point x="160" y="625" type="curve"/>
      <point x="160" y="460" type="line"/>
      <point x="211" y="412"/>
      <point x="303" y="392"/>
      <point x="366" y="392" type="curve" smooth="yes"/>
      <point x="430" y="392"/>
      <point x="521" y="412"/>
    </contour>
    <contour>
      <point x="582" y="97" type="curve"/>
      <point x="582" y="280" type="line"/>
      <point x="524" y="329"/>
      <point x="434" y="349"/>
      <point x="366" y="349" type="curve" smooth="yes"/>
      <point x="299" y="349"/>
      <point x="209" y="329"/>
      <point x="151" y="280" type="curve"/>
      <point x="151" y="97" type="line"/>
      <point x="213" y="49"/>
      <point x="289" y="33"/>
      <point x="366" y="33" type="curve" smooth="yes"/>
      <point x="444" y="33"/>
      <point x="521" y="49"/>
    </contour>
  </outline>
</glyph>
<glyph name="nine" format="1">
  <advance width="722"/>
  <unicode hex="0039"/>
  <outline>
    <contour>
      <point x="617" y="72" type="line"/>
      <point x="546" y="13"/>
      <point x="446" y="-10"/>
      <point x="360" y="-10" type="curve" smooth="yes"/>
      <point x="275" y="-10"/>
      <point x="176" y="11"/>
      <point x="105" y="68" type="curve"/>
      <point x="105" y="193" type="line"/>
      <point x="150" y="193" type="line"/>
      <point x="150" y="95" type="line"/>
      <point x="204" y="53"/>
      <point x="284" y="33"/>
      <point x="360" y="33" type="curve" smooth="yes"/>
      <point x="433" y="33"/>
      <point x="516" y="53"/>
      <point x="572" y="97" type="curve"/>
      <point x="572" y="356" type="line"/>
      <point x="519" y="321"/>
      <point x="434" y="299"/>
      <point x="357" y="299" type="curve" smooth="yes"/>
      <point x="264" y="299"/>
      <point x="161" y="325"/>
      <point x="103" y="381" type="curve"/>
      <point x="103" y="640" type="line"/>
      <point x="172" y="706"/>
      <point x="277" y="730"/>
      <point x="360" y="730" type="curve" smooth="yes"/>
      <point x="442" y="730"/>
      <point x="548" y="706"/>
      <point x="617" y="640" type="curve"/>
    </contour>
    <contour>
      <point x="572" y="403" type="curve"/>
      <point x="572" y="620" type="line"/>
      <point x="518" y="666"/>
      <point x="432" y="686"/>
      <point x="360" y="687" type="curve" smooth="yes"/>
      <point x="288" y="687"/>
      <point x="203" y="666"/>
      <point x="149" y="620" type="curve"/>
      <point x="149" y="403" type="line"/>
      <point x="196" y="360"/>
      <point x="275" y="342"/>
      <point x="360" y="342" type="curve" smooth="yes"/>
      <point x="437" y="342"/>
      <point x="514" y="361"/>
    </contour>
  </outline>
</glyph>
<glyph name="colon" format="1">
  <advance width="228"/>
  <unicode hex="003A"/>
  <outline>
    <contour>
      <point x="138" y="373" type="line"/>
      <point x="90" y="373" type="line"/>
      <point x="90" y="480" type="line"/>
      <point x="138" y="480" type="line"/>
    </contour>
    <contour>
      <point x="138" y="0" type="line"/>
      <point x="90" y="0" type="line"/>
      <point x="90" y="107" type="line"/>
      <point x="138" y="107" type="line"/>
    </contour>
  </outline>
</glyph>
<glyph name="semicolon" format="1">
  <advance width="228"/>
  <unicode hex="003B"/>
  <outline>
    <contour>
      <point x="138" y="373" type="line"/>
      <point x="90" y="373" type="line"/>
      <point x="90" y="480" type="line"/>
      <point x="138" y="480" type="line"/>
    </contour>
    <contour>
      <point x="146" y="107" type="line"/>
      <point x="112" y="-82" type="line"/>
      <point x="67" y="-82" type="line"/>
      <point x="100" y="107" type="line"/>
    </contour>
  </outline>
</glyph>
<glyph name="less" format="1">
  <advance width="481"/>
  <unicode hex="003C"/>
  <outline>
    <contour>
      <point x="412" y="65" type="line"/>
      <point x="55" y="336" type="line"/>
      <point x="55" y="384" type="line"/>
      <point x="412" y="655" type="line"/>
      <point x="412" y="602" type="line"/>
      <point x="97" y="360" type="line"/>
      <point x="412" y="118" type="line"/>
    </contour>
  </outline>
</glyph>
<glyph name="equal" format="1">
  <advance width="472"/>
  <unicode hex="003D"/>
  <outline>
    <contour>
      <point x="402" y="462" type="line"/>
      <point x="70" y="462" type="line"/>
      <point x="70" y="506" type="line"/>
      <point x="402" y="506" type="line"/>
    </contour>
    <contour>
      <point x="402" y="234" type="line"/>
      <point x="70" y="234" type="line"/>
      <point x="70" y="278" type="line"/>
      <point x="402" y="278" type="line"/>
    </contour>
  </outline>
</glyph>
<glyph name="greater" format="1">
  <advance width="481"/>
  <unicode hex="003E"/>
  <outline>
    <contour>
      <point x="426" y="336" type="line"/>
      <point x="69" y="65" type="line"/>
      <point x="69" y="118" type="line"/>
      <point x="384" y="360" type="line"/>
      <point x="69" y="602" type="line"/>
      <point x="69" y="655" type="line"/>
      <point x="426" y="384" type="line"/>
    </contour>
  </outline>
</glyph>
<glyph name="question" format="1">
  <advance width="612"/>
  <unicode hex="003F"/>
  <outline>
    <contour>
      <point x="546" y="483" type="line"/>
      <point x="331" y="295" type="line"/>
      <point x="331" y="207" type="line"/>
      <point x="285" y="207" type="line"/>
      <point x="285" y="309" type="line"/>
      <point x="500" y="497" type="line"/>
      <point x="500" y="623" type="line"/>
      <point x="445" y="668"/>
      <point x="376" y="687"/>
      <point x="305" y="687" type="curve" smooth="yes"/>
      <point x="233" y="687"/>
      <point x="164" y="668"/>
      <point x="110" y="623" type="curve"/>
      <point x="110" y="527" type="line"/>
      <point x="64" y="527" type="line"/>
      <point x="64" y="648" type="line"/>
      <point x="136" y="707"/>
      <point x="224" y="730"/>
      <point x="305" y="730" type="curve" smooth="yes"/>
      <point x="388" y="730"/>
      <point x="475" y="707"/>
      <point x="546" y="648" type="curve"/>
    </contour>
    <contour>
      <point x="332" y="0" type="line"/>
      <point x="284" y="0" type="line"/>
      <point x="284" y="107" type="line"/>
      <point x="332" y="107" type="line"/>
    </contour>
  </outline>
</glyph>
<glyph name="at" format="1">
  <advance width="836"/>
  <unicode hex="0040"/>
  <outline>
    <contour>
      <point x="731" y="92" type="line"/>
      <point x="651" y="23"/>
      <point x="535" y="-10"/>
      <point x="418" y="-10" type="curve" smooth="yes"/>
      <point x="300" y="-10"/>
      <point x="184" y="23"/>
      <point x="105" y="92" type="curve"/>
      <point x="105" y="628" type="line"/>
      <point x="184" y="697"/>
      <point x="300" y="730"/>
      <point x="418" y="730" type="curve" smooth="yes"/>
      <point x="535" y="730"/>
      <point x="651" y="697"/>
      <point x="731" y="628" type="curve"/>
      <point x="731" y="341" type="line"/>
      <point x="559" y="341" type="line"/>
      <point x="559" y="231" type="line"/>
      <point x="525" y="205"/>
      <point x="477" y="190"/>
      <point x="418" y="190" type="curve" smooth="yes"/>
      <point x="360" y="190"/>
      <point x="311" y="204"/>
      <point x="277" y="231" type="curve"/>
      <point x="277" y="489" type="line"/>
      <point x="310" y="515"/>
      <point x="359" y="530"/>
      <point x="418" y="530" type="curve" smooth="yes"/>
      <point x="476" y="530"/>
      <point x="525" y="516"/>
      <point x="559" y="489" type="curve"/>
      <point x="559" y="380" type="line"/>
      <point x="687" y="380" type="line"/>
      <point x="687" y="608" type="line"/>
      <point x="621" y="662"/>
      <point x="516" y="689"/>
      <point x="418" y="689" type="curve" smooth="yes"/>
      <point x="321" y="689"/>
      <point x="215" y="663"/>
      <point x="149" y="608" type="curve"/>
      <point x="149" y="112" type="line"/>
      <point x="215" y="57"/>
      <point x="321" y="31"/>
      <point x="418" y="31" type="curve" smooth="yes"/>
      <point x="516" y="31"/>
      <point x="621" y="58"/>
      <point x="687" y="112" type="curve"/>
      <point x="687" y="197" type="line"/>
      <point x="731" y="197" type="line"/>
    </contour>
    <contour>
      <point x="519" y="253" type="curve"/>
      <point x="519" y="467" type="line"/>
      <point x="495" y="484"/>
      <point x="461" y="493"/>
      <point x="418" y="493" type="curve" smooth="yes"/>
      <point x="376" y="493"/>
      <point x="341" y="484"/>
      <point x="318" y="467" type="curve"/>
      <point x="318" y="253" type="line"/>
      <point x="341" y="236"/>
      <point x="376" y="228"/>
      <point x="418" y="228" type="curve" smooth="yes"/>
      <point x="460" y="228"/>
      <point x="494" y="236"/>
    </contour>
  </outline>
</glyph>
<glyph name="A" format="1">
  <advance width="756"/>
  <unicode hex="0041"/>
  <outline>
    <contour>
      <point x="643" y="0" type="line"/>
      <point x="597" y="0" type="line"/>
      <point x="597" y="297" type="line"/>
      <point x="159" y="297" type="line"/>
      <point x="159" y="0" type="line"/>
      <point x="113" y="0" type="line"/>
      <point x="113" y="636" type="line"/>
      <point x="188" y="700"/>
      <point x="283" y="730"/>
      <point x="378" y="730" type="curve" smooth="yes"/>
      <point x="473" y="730"/>
      <point x="569" y="700"/>
      <point x="643" y="636" type="curve"/>
    </contour>
    <contour>
      <point x="597" y="340" type="line"/>
      <point x="597" y="614" type="line"/>
      <point x="532" y="665"/>
      <point x="458" y="687"/>
      <point x="378" y="687" type="curve" smooth="yes"/>
      <point x="298" y="687"/>
      <point x="225" y="665"/>
      <point x="159" y="614" type="curve"/>
      <point x="159" y="340" type="line"/>
    </contour>
  </outline>
</glyph>
<glyph name="B" format="1">
  <advance width="715"/>
  <unicode hex="0042"/>
  <outline>
    <contour>
      <point x="625" y="102" type="line"/>
      <point x="562" y="29"/>
      <point x="476" y="0"/>
      <point x="363" y="0" type="curve" smooth="yes"/>
      <point x="120" y="0" type="line"/>
      <point x="120" y="720" type="line"/>
      <point x="356" y="720" type="line" smooth="yes"/>
      <point x="472" y="720"/>
      <point x="555" y="693"/>
      <point x="618" y="619" type="curve"/>
      <point x="618" y="449" type="line"/>
      <point x="578" y="406"/>
      <point x="521" y="380"/>
      <point x="470" y="372" type="curve"/>
      <point x="521" y="367"/>
      <point x="583" y="339"/>
      <point x="625" y="294" type="curve"/>
    </contour>
    <contour>
      <point x="572" y="465" type="curve"/>
      <point x="572" y="599" type="line"/>
      <point x="519" y="660"/>
      <point x="448" y="677"/>
      <point x="356" y="677" type="curve" smooth="yes"/>
      <point x="165" y="677" type="line"/>
      <point x="165" y="392" type="line"/>
      <point x="367" y="392" type="line" smooth="yes"/>
      <point x="456" y="392"/>
      <point x="525" y="413"/>
    </contour>
    <contour>
      <point x="579" y="120" type="curve"/>
      <point x="579" y="279" type="line"/>
      <point x="525" y="333"/>
      <point x="460" y="352"/>
      <point x="371" y="352" type="curve" smooth="yes"/>
      <point x="165" y="352" type="line"/>
      <point x="165" y="43" type="line"/>
      <point x="363" y="43" type="line" smooth="yes"/>
      <point x="454" y="43"/>
      <point x="526" y="60"/>
    </contour>
  </outline>
</glyph>
<glyph name="C" format="1">
  <advance width="762"/>
  <unicode hex="0043"/>
  <outline>
    <contour>
      <point x="657" y="82" type="line"/>
      <point x="574" y="17"/>
      <point x="475" y="-10"/>
      <point x="381" y="-10" type="curve" smooth="yes"/>
      <point x="288" y="-10"/>
      <point x="190" y="17"/>
      <point x="105" y="82" type="curve"/>
      <point x="105" y="638" type="line"/>
      <point x="188" y="703"/>
      <point x="287" y="730"/>
      <point x="381" y="730" type="curve" smooth="yes"/>
      <point x="473" y="730"/>
      <point x="573" y="704"/>
      <point x="657" y="638" type="curve"/>
      <point x="657" y="527" type="line"/>
      <point x="611" y="527" type="line"/>
      <point x="611" y="614" type="line"/>
      <point x="542" y="665"/>
      <point x="463" y="687"/>
      <point x="381" y="687" type="curve" smooth="yes"/>
      <point x="301" y="687"/>
      <point x="221" y="666"/>
      <point x="151" y="614" type="curve"/>
      <point x="151" y="106" type="line"/>
      <point x="220" y="54"/>
      <point x="299" y="33"/>
      <point x="381" y="33" type="curve" smooth="yes"/>
      <point x="462" y="33"/>
      <point x="541" y="54"/>
      <point x="611" y="106" type="curve"/>
      <point x="611" y="193" type="line"/>
      <point x="657" y="193" type="line"/>
    </contour>
  </outline>
</glyph>
<glyph name="D" format="1">
  <advance width="774"/>
  <unicode hex="0044"/>
  <outline>
    <contour>
      <point x="669" y="130" type="line"/>
      <point x="603" y="52"/>
      <point x="505" y="0"/>
      <point x="345" y="0" type="curve" smooth="yes"/>
      <point x="120" y="0" type="line"/>
      <point x="120" y="720" type="line"/>
      <point x="345" y="720" type="line" smooth="yes"/>
      <point x="503" y="720"/>
      <point x="601" y="669"/>
      <point x="669" y="590" type="curve"/>
    </contour>
    <contour>
      <point x="623" y="151" type="curve"/>
      <point x="623" y="570" type="line"/>
      <point x="566" y="635"/>
      <point x="478" y="677"/>
      <point x="345" y="677" type="curve" smooth="yes"/>
      <point x="166" y="677" type="line"/>
      <point x="166" y="43" type="line"/>
      <point x="345" y="43" type="line" smooth="yes"/>
      <point x="477" y="43"/>
      <point x="565" y="85"/>
    </contour>
  </outline>
</glyph>
<glyph name="E" format="1">
  <advance width="761"/>
  <unicode hex="0045"/>
  <outline>
    <contour>
      <point x="657" y="71" type="line"/>
      <point x="574" y="14"/>
      <point x="474" y="-10"/>
      <point x="381" y="-10" type="curve" smooth="yes"/>
      <point x="288" y="-10"/>
      <point x="190" y="13"/>
      <point x="105" y="71" type="curve"/>
      <point x="105" y="649" type="line"/>
      <point x="188" y="706"/>
      <point x="287" y="730"/>
      <point x="381" y="730" type="curve" smooth="yes"/>
      <point x="473" y="730"/>
      <point x="573" y="707"/>
      <point x="657" y="649" type="curve"/>
      <point x="657" y="527" type="line"/>
      <point x="611" y="527" type="line"/>
      <point x="611" y="622" type="line"/>
      <point x="542" y="667"/>
      <point x="463" y="687"/>
      <point x="381" y="687" type="curve" smooth="yes"/>
      <point x="301" y="687"/>
      <point x="221" y="668"/>
      <point x="151" y="622" type="curve"/>
      <point x="151" y="393" type="line"/>
      <point x="481" y="393" type="line"/>
      <point x="481" y="350" type="line"/>
      <point x="151" y="350" type="line"/>
      <point x="151" y="98" type="line"/>
      <point x="220" y="52"/>
      <point x="299" y="33"/>
      <point x="381" y="33" type="curve" smooth="yes"/>
      <point x="462" y="33"/>
      <point x="541" y="51"/>
      <point x="611" y="98" type="curve"/>
      <point x="611" y="193" type="line"/>
      <point x="657" y="193" type="line"/>
    </contour>
  </outline>
</glyph>
<glyph name="F" format="1">
  <advance width="701"/>
  <unicode hex="0046"/>
  <outline>
    <contour>
      <point x="631" y="527" type="line"/>
      <point x="585" y="527" type="line"/>
      <point x="585" y="626" type="line"/>
      <point x="517" y="672"/>
      <point x="442" y="687"/>
      <point x="368" y="687" type="curve" smooth="yes"/>
      <point x="295" y="687"/>
      <point x="221" y="673"/>
      <point x="151" y="626" type="curve"/>
      <point x="151" y="367" type="line"/>
      <point x="475" y="367" type="line"/>
      <point x="475" y="325" type="line"/>
      <point x="151" y="325" type="line"/>
      <point x="151" y="0" type="line"/>
      <point x="105" y="0" type="line"/>
      <point x="105" y="652" type="line"/>
      <point x="188" y="709"/>
      <point x="276" y="730"/>
      <point x="368" y="730" type="curve" smooth="yes"/>
      <point x="459" y="730"/>
      <point x="547" y="710"/>
      <point x="631" y="652" type="curve"/>
    </contour>
  </outline>
</glyph>
<glyph name="G" format="1">
  <advance width="776"/>
  <unicode hex="0047"/>
  <outline>
    <contour>
      <point x="671" y="82" type="line"/>
      <point x="588" y="17"/>
      <point x="485" y="-10"/>
      <point x="388" y="-10" type="curve" smooth="yes"/>
      <point x="291" y="-10"/>
      <point x="189" y="17"/>
      <point x="105" y="82" type="curve"/>
      <point x="105" y="638" type="line"/>
      <point x="188" y="703"/>
      <point x="291" y="730"/>
      <point x="388" y="730" type="curve" smooth="yes"/>
      <point x="483" y="730"/>
      <point x="587" y="704"/>
      <point x="671" y="638" type="curve"/>
      <point x="671" y="527" type="line"/>
      <point x="625" y="527" type="line"/>
      <point x="625" y="614" type="line"/>
      <point x="556" y="665"/>
      <point x="472" y="687"/>
      <point x="388" y="687" type="curve" smooth="yes"/>
      <point x="305" y="687"/>
      <point x="221" y="666"/>
      <point x="151" y="614" type="curve"/>
      <point x="151" y="106" type="line"/>
      <point x="220" y="54"/>
      <point x="304" y="33"/>
      <point x="388" y="33" type="curve" smooth="yes"/>
      <point x="472" y="33"/>
      <point x="555" y="54"/>
      <point x="625" y="106" type="curve"/>
      <point x="625" y="319" type="line"/>
      <point x="430" y="319" type="line"/>
      <point x="430" y="361" type="line"/>
      <point x="671" y="361" type="line"/>
    </contour>
  </outline>
</glyph>
<glyph name="H" format="1">
  <advance width="791"/>
  <unicode hex="0048"/>
  <outline>
    <contour>
      <point x="671" y="0" type="line"/>
      <point x="625" y="0" type="line"/>
      <point x="625" y="350" type="line"/>
      <point x="166" y="350" type="line"/>
      <point x="166" y="0" type="line"/>
      <point x="120" y="0" type="line"/>
      <point x="120" y="720" type="line"/>
      <point x="166" y="720" type="line"/>
      <point x="166" y="393" type="line"/>
      <point x="625" y="393" type="line"/>
      <point x="625" y="720" type="line"/>
      <point x="671" y="720" type="line"/>
    </contour>
  </outline>
</glyph>
<glyph name="J" format="1">
  <advance width="466"/>
  <unicode hex="004A"/>
  <outline>
    <contour>
      <point x="351" y="99" type="line"/>
      <point x="287" y="27"/>
      <point x="209" y="0"/>
      <point x="116" y="0" type="curve" smooth="yes"/>
      <point x="70" y="0" type="line"/>
      <point x="70" y="43" type="line"/>
      <point x="116" y="43" type="line" smooth="yes"/>
      <point x="190" y="43"/>
      <point x="254" y="63"/>
      <point x="305" y="120" type="curve"/>
      <point x="305" y="720" type="line"/>
      <point x="351" y="720" type="line"/>
    </contour>
  </outline>
</glyph>
<glyph name="K" format="1">
  <advance width="761"/>
  <unicode hex="004B"/>
  <outline>
    <contour>
      <point x="649" y="0" type="line"/>
      <point x="603" y="0" type="line"/>
      <point x="603" y="261" type="line"/>
      <point x="551" y="320"/>
      <point x="477" y="350"/>
      <point x="379" y="350" type="curve" smooth="yes"/>
      <point x="166" y="350" type="line"/>
      <point x="166" y="0" type="line"/>
      <point x="120" y="0" type="line"/>
      <point x="120" y="720" type="line"/>
      <point x="166" y="720" type="line"/>
      <point x="166" y="390" type="line"/>
      <point x="377" y="390" type="line" smooth="yes"/>
      <point x="471" y="390"/>
      <point x="549" y="418"/>
      <point x="598" y="476" type="curve"/>
      <point x="598" y="720" type="line"/>
      <point x="644" y="720" type="line"/>
      <point x="644" y="457" type="line"/>
      <point x="605" y="414"/>
      <point x="538" y="380"/>
      <point x="482" y="370" type="curve"/>
      <point x="539" y="360"/>
      <point x="603" y="330"/>
      <point x="649" y="280" type="curve"/>
    </contour>
  </outline>
</glyph>
<glyph name="L" format="1">
  <advance width="633"/>
  <unicode hex="004C"/>
  <outline>
    <contour>
      <point x="571" y="0" type="line"/>
      <point x="120" y="0" type="line"/>
      <point x="120" y="720" type="line"/>
      <point x="166" y="720" type="line"/>
      <point x="166" y="43" type="line"/>
      <point x="571" y="43" type="line"/>
    </contour>
  </outline>
</glyph>
<glyph name="M" format="1">
  <advance width="946"/>
  <unicode hex="004D"/>
  <outline>
    <contour>
      <point x="831" y="0" type="line"/>
      <point x="785" y="0" type="line"/>
      <point x="785" y="611" type="line"/>
      <point x="710" y="659"/>
      <point x="602" y="683"/>
      <point x="496" y="686" type="curve"/>
      <point x="496" y="0" type="line"/>
      <point x="450" y="0" type="line"/>
      <point x="450" y="686" type="line"/>
      <point x="344" y="683"/>
      <point x="236" y="660"/>
      <point x="161" y="611" type="curve"/>
      <point x="161" y="0" type="line"/>
      <point x="115" y="0" type="line"/>
      <point x="115" y="636" type="line"/>
      <point x="214" y="700"/>
      <point x="337" y="730"/>
      <point x="473" y="730" type="curve" smooth="yes"/>
      <point x="609" y="730"/>
      <point x="732" y="700"/>
      <point x="831" y="636" type="curve"/>
    </contour>
  </outline>
</glyph>
<glyph name="N" format="1">
  <advance width="796"/>
  <unicode hex="004E"/>
  <outline>
    <contour>
      <point x="681" y="0" type="line"/>
      <point x="635" y="0" type="line"/>
      <point x="635" y="604" type="line"/>
      <point x="569" y="661"/>
      <point x="490" y="687"/>
      <point x="398" y="687" type="curve" smooth="yes"/>
      <point x="308" y="687"/>
      <point x="229" y="663"/>
      <point x="161" y="604" type="curve"/>
      <point x="161" y="0" type="line"/>
      <point x="115" y="0" type="line"/>
      <point x="115" y="625" type="line"/>
      <point x="191" y="694"/>
      <point x="295" y="730"/>
      <point x="398" y="730" type="curve" smooth="yes"/>
      <point x="501" y="730"/>
      <point x="605" y="695"/>
      <point x="681" y="625" type="curve"/>
    </contour>
  </outline>
</glyph>
<glyph name="O" format="1">
  <advance width="796"/>
  <unicode hex="004F"/>
  <outline>
    <contour>
      <point x="691" y="97" type="line"/>
      <point x="608" y="25"/>
      <point x="510" y="-10"/>
      <point x="398" y="-10" type="curve" smooth="yes"/>
      <point x="287" y="-10"/>
      <point x="189" y="25"/>
      <point x="105" y="97" type="curve"/>
      <point x="105" y="623" type="line"/>
      <point x="188" y="695"/>
      <point x="285" y="730"/>
      <point x="398" y="730" type="curve" smooth="yes"/>
      <point x="509" y="730"/>
      <point x="607" y="696"/>
      <point x="691" y="623" type="curve"/>
    </contour>
    <contour>
      <point x="645" y="120" type="curve"/>
      <point x="645" y="600" type="line"/>
      <point x="576" y="658"/>
      <point x="495" y="687"/>
      <point x="398" y="687" type="curve" smooth="yes"/>
      <point x="302" y="687"/>
      <point x="221" y="658"/>
      <point x="151" y="600" type="curve"/>
      <point x="151" y="120" type="line"/>
      <point x="220" y="62"/>
      <point x="301" y="33"/>
      <point x="398" y="33" type="curve" smooth="yes"/>
      <point x="495" y="33"/>
      <point x="575" y="62"/>
    </contour>
  </outline>
</glyph>
<glyph name="P" format="1">
  <advance width="671"/>
  <unicode hex="0050"/>
  <outline>
    <contour>
      <point x="599" y="396" type="line"/>
      <point x="532" y="318"/>
      <point x="457" y="288"/>
      <point x="337" y="288" type="curve" smooth="yes"/>
      <point x="166" y="288" type="line"/>
      <point x="166" y="0" type="line"/>
      <point x="120" y="0" type="line"/>
      <point x="120" y="720" type="line"/>
      <point x="337" y="720" type="line" smooth="yes"/>
      <point x="457" y="720"/>
      <point x="532" y="691"/>
      <point x="599" y="613" type="curve"/>
    </contour>
    <contour>
      <point x="553" y="417" type="curve"/>
      <point x="553" y="592" type="line"/>
      <point x="498" y="656"/>
      <point x="430" y="677"/>
      <point x="337" y="677" type="curve" smooth="yes"/>
      <point x="166" y="677" type="line"/>
      <point x="166" y="331" type="line"/>
      <point x="337" y="331" type="line" smooth="yes"/>
      <point x="429" y="331"/>
      <point x="496" y="352"/>
    </contour>
  </outline>
</glyph>
<glyph name="Q" format="1">
  <advance width="796"/>
  <unicode hex="0051"/>
  <outline>
    <contour>
      <point x="691" y="97" type="line"/>
      <point x="613" y="30"/>
      <point x="523" y="-5"/>
      <point x="420" y="-10" type="curve"/>
      <point x="420" y="-125" type="line"/>
      <point x="376" y="-125" type="line"/>
      <point x="376" y="-10" type="line"/>
      <point x="274" y="-5"/>
      <point x="184" y="30"/>
      <point x="105" y="97" type="curve"/>
      <point x="105" y="623" type="line"/>
      <point x="188" y="695"/>
      <point x="285" y="730"/>
      <point x="398" y="730" type="curve" smooth="yes"/>
      <point x="509" y="730"/>
      <point x="607" y="696"/>
      <point x="691" y="623" type="curve"/>
    </contour>
    <contour>
      <point x="645" y="120" type="curve"/>
      <point x="645" y="600" type="line"/>
      <point x="576" y="658"/>
      <point x="495" y="687"/>
      <point x="398" y="687" type="curve" smooth="yes"/>
      <point x="302" y="687"/>
      <point x="221" y="658"/>
      <point x="151" y="600" type="curve"/>
      <point x="151" y="120" type="line"/>
      <point x="215" y="66"/>
      <point x="288" y="39"/>
      <point x="376" y="34" type="curve"/>
      <point x="376" y="161" type="line"/>
      <point x="420" y="161" type="line"/>
      <point x="420" y="34" type="line"/>
      <point x="508" y="39"/>
      <point x="581" y="66"/>
    </contour>
  </outline>
</glyph>
<glyph name="R" format="1">
  <advance width="731"/>
  <unicode hex="0052"/>
  <outline>
    <contour>
      <point x="629" y="0" type="line"/>
      <point x="583" y="0" type="line"/>
      <point x="583" y="247" type="line"/>
      <point x="530" y="300"/>
      <point x="461" y="320"/>
      <point x="375" y="320" type="curve" smooth="yes"/>
      <point x="166" y="320" type="line"/>
      <point x="166" y="0" type="line"/>
      <point x="120" y="0" type="line"/>
      <point x="120" y="720" type="line"/>
      <point x="366" y="720" type="line" smooth="yes"/>
      <point x="486" y="720"/>
      <point x="558" y="694"/>
      <point x="624" y="616" type="curve"/>
      <point x="624" y="413" type="line"/>
      <point x="584" y="372"/>
      <point x="528" y="348"/>
      <point x="478" y="340" type="curve"/>
      <point x="527" y="334"/>
      <point x="587" y="308"/>
      <point x="629" y="266" type="curve"/>
    </contour>
    <contour>
      <point x="578" y="433" type="curve"/>
      <point x="578" y="596" type="line"/>
      <point x="523" y="660"/>
      <point x="458" y="677"/>
      <point x="366" y="677" type="curve" smooth="yes"/>
      <point x="166" y="677" type="line"/>
      <point x="166" y="360" type="line"/>
      <point x="373" y="360" type="line" smooth="yes"/>
      <point x="462" y="360"/>
      <point x="531" y="381"/>
    </contour>
  </outline>
</glyph>
<glyph name="S" format="1">
  <advance width="736"/>
  <unicode hex="0053"/>
  <outline>
    <contour>
      <point x="631" y="73" type="line"/>
      <point x="548" y="15"/>
      <point x="461" y="-10"/>
      <point x="368" y="-10" type="curve" smooth="yes"/>
      <point x="277" y="-10"/>
      <point x="189" y="14"/>
      <point x="105" y="73" type="curve"/>
      <point x="105" y="193" type="line"/>
      <point x="151" y="193" type="line"/>
      <point x="151" y="98" type="line"/>
      <point x="220" y="52"/>
      <point x="290" y="33"/>
      <point x="368" y="33" type="curve" smooth="yes"/>
      <point x="446" y="33"/>
      <point x="515" y="51"/>
      <point x="585" y="98" type="curve"/>
      <point x="585" y="246" type="line"/>
      <point x="108" y="432" type="line"/>
      <point x="108" y="647" type="line"/>
      <point x="191" y="705"/>
      <point x="271" y="730"/>
      <point x="368" y="730" type="curve" smooth="yes"/>
      <point x="463" y="730"/>
      <point x="544" y="706"/>
      <point x="628" y="647" type="curve"/>
      <point x="628" y="527" type="line"/>
      <point x="583" y="527" type="line"/>
      <point x="583" y="621" type="line"/>
      <point x="514" y="668"/>
      <point x="450" y="687"/>
      <point x="368" y="687" type="curve" smooth="yes"/>
      <point x="288" y="687"/>
      <point x="224" y="669"/>
      <point x="154" y="621" type="curve"/>
      <point x="154" y="463" type="line"/>
      <point x="631" y="276" type="line"/>
    </contour>
  </outline>
</glyph>
<glyph name="T" format="1">
  <advance width="668"/>
  <unicode hex="0054"/>
  <outline>
    <contour>
      <point x="613" y="677" type="line"/>
      <point x="357" y="677" type="line"/>
      <point x="357" y="0" type="line"/>
      <point x="311" y="0" type="line"/>
      <point x="311" y="677" type="line"/>
      <point x="55" y="677" type="line"/>
      <point x="55" y="720" type="line"/>
      <point x="613" y="720" type="line"/>
    </contour>
  </outline>
</glyph>
<glyph name="U" format="1">
  <advance width="796"/>
  <unicode hex="0055"/>
  <outline>
    <contour>
      <point x="681" y="96" type="line"/>
      <point x="605" y="26"/>
      <point x="502" y="-10"/>
      <point x="398" y="-10" type="curve" smooth="yes"/>
      <point x="295" y="-10"/>
      <point x="192" y="25"/>
      <point x="115" y="96" type="curve"/>
      <point x="115" y="720" type="line"/>
      <point x="161" y="720" type="line"/>
      <point x="161" y="117" type="line"/>
      <point x="228" y="59"/>
      <point x="306" y="33"/>
      <point x="398" y="33" type="curve" smooth="yes"/>
      <point x="489" y="33"/>
      <point x="568" y="58"/>
      <point x="635" y="117" type="curve"/>
      <point x="635" y="720" type="line"/>
      <point x="681" y="720" type="line"/>
    </contour>
  </outline>
</glyph>
<glyph name="V" format="1">
  <advance width="790"/>
  <unicode hex="0056"/>
  <outline>
    <contour>
      <point x="678" y="555" type="line" smooth="yes"/>
      <point x="678" y="290"/>
      <point x="554" y="116"/>
      <point x="418" y="-7" type="curve"/>
      <point x="372" y="-7" type="line"/>
      <point x="236" y="116"/>
      <point x="112" y="290"/>
      <point x="112" y="555" type="curve" smooth="yes"/>
      <point x="112" y="720" type="line"/>
      <point x="158" y="720" type="line"/>
      <point x="158" y="556" type="line" smooth="yes"/>
      <point x="158" y="300"/>
      <point x="273" y="140"/>
      <point x="395" y="31" type="curve"/>
      <point x="517" y="140"/>
      <point x="632" y="300"/>
      <point x="632" y="556" type="curve" smooth="yes"/>
      <point x="632" y="720" type="line"/>
      <point x="678" y="720" type="line"/>
    </contour>
  </outline>
</glyph>
<glyph name="W" format="1">
  <advance width="946"/>
  <unicode hex="0057"/>
  <outline>
    <contour>
      <point x="831" y="85" type="line"/>
      <point x="732" y="21"/>
      <point x="609" y="-10"/>
      <point x="473" y="-10" type="curve" smooth="yes"/>
      <point x="338" y="-10"/>
      <point x="214" y="19"/>
      <point x="115" y="85" type="curve"/>
      <point x="115" y="720" type="line"/>
      <point x="161" y="720" type="line"/>
      <point x="161" y="109" type="line"/>
      <point x="236" y="62"/>
      <point x="344" y="38"/>
      <point x="450" y="34" type="curve"/>
      <point x="450" y="720" type="line"/>
      <point x="496" y="720" type="line"/>
      <point x="496" y="34" type="line"/>
      <point x="602" y="37"/>
      <point x="710" y="61"/>
      <point x="785" y="109" type="curve"/>
      <point x="785" y="720" type="line"/>
      <point x="831" y="720" type="line"/>
    </contour>
  </outline>
</glyph>
<glyph name="X" format="1">
  <advance width="724"/>
  <unicode hex="0058"/>
  <outline>
    <contour>
      <point x="611" y="0" type="line"/>
      <point x="565" y="0" type="line"/>
      <point x="565" y="275" type="line"/>
      <point x="514" y="329"/>
      <point x="443" y="351"/>
      <point x="361" y="351" type="curve" smooth="yes"/>
      <point x="280" y="351"/>
      <point x="209" y="329"/>
      <point x="157" y="275" type="curve"/>
      <point x="157" y="0" type="line"/>
      <point x="112" y="0" type="line"/>
      <point x="112" y="290" type="line"/>
      <point x="153" y="335"/>
      <point x="218" y="365"/>
      <point x="269" y="372" type="curve"/>
      <point x="218" y="381"/>
      <point x="157" y="410"/>
      <point x="117" y="453" type="curve"/>
      <point x="117" y="720" type="line"/>
      <point x="162" y="720" type="line"/>
      <point x="162" y="469" type="line"/>
      <point x="208" y="417"/>
      <point x="281" y="393"/>
      <point x="361" y="393" type="curve" smooth="yes"/>
      <point x="442" y="393"/>
      <point x="515" y="417"/>
      <point x="560" y="469" type="curve"/>
      <point x="560" y="720" type="line"/>
      <point x="606" y="720" type="line"/>
      <point x="606" y="453" type="line"/>
      <point x="565" y="410"/>
      <point x="505" y="381"/>
      <point x="454" y="372" type="curve"/>
      <point x="505" y="365"/>
      <point x="569" y="335"/>
      <point x="611" y="290" type="curve"/>
    </contour>
  </outline>
</glyph>
<glyph name="Z" format="1">
  <advance width="710"/>
  <unicode hex="005A"/>
  <outline>
    <contour>
      <point x="610" y="0" type="line"/>
      <point x="92" y="0" type="line"/>
      <point x="92" y="36" type="line"/>
      <point x="552" y="678" type="line"/>
      <point x="112" y="678" type="line"/>
      <point x="112" y="720" type="line"/>
      <point x="608" y="720" type="line"/>
      <point x="608" y="681" type="line"/>
      <point x="150" y="42" type="line"/>
      <point x="610" y="42" type="line"/>
    </contour>
  </outline>
</glyph>
<glyph name="bracketleft" format="1">
  <advance width="385"/>
  <unicode hex="005B"/>
  <outline>
    <contour>
      <point x="306" y="0" type="line"/>
      <point x="120" y="0" type="line"/>
      <point x="120" y="720" type="line"/>
      <point x="306" y="720" type="line"/>
      <point x="306" y="679" type="line"/>
      <point x="165" y="679" type="line"/>
      <point x="165" y="41" type="line"/>
      <point x="306" y="41" type="line"/>
    </contour>
  </outline>
</glyph>
<glyph name="backslash" format="1">
  <advance width="476"/>
  <unicode hex="005C"/>
  <outline>
    <contour>
      <point x="406" y="0" type="line"/>
      <point x="360" y="0" type="line"/>
      <point x="70" y="720" type="line"/>
      <point x="116" y="720" type="line"/>
    </contour>
  </outline>
</glyph>
<glyph name="bracketright" format="1">
  <advance width="385"/>
  <unicode hex="005D"/>
  <outline>
    <contour>
      <point x="265" y="0" type="line"/>
      <point x="79" y="0" type="line"/>
      <point x="79" y="41" type="line"/>
      <point x="220" y="41" type="line"/>
      <point x="220" y="679" type="line"/>
      <point x="79" y="679" type="line"/>
      <point x="79" y="720" type="line"/>
      <point x="265" y="720" type="line"/>
    </contour>
  </outline>
</glyph>
<glyph name="asciicircum" format="1">
  <advance width="564"/>
  <unicode hex="005E"/>
  <outline>
    <contour>
      <point x="492" y="350" type="line"/>
      <point x="444" y="350" type="line"/>
      <point x="282" y="677" type="line"/>
      <point x="120" y="350" type="line"/>
      <point x="72" y="350" type="line"/>
      <point x="260" y="727" type="line"/>
      <point x="304" y="727" type="line"/>
    </contour>
  </outline>
</glyph>
<glyph name="underscore" format="1">
  <advance width="540"/>
  <unicode hex="005F"/>
  <outline>
    <contour>
      <point x="540" y="-105" type="line"/>
      <point x="0" y="-105" type="line"/>
      <point x="0" y="-61" type="line"/>
      <point x="540" y="-61" type="line"/>
    </contour>
  </outline>
</glyph>
<glyph name="grave" format="1">
  <advance width="500"/>
  <unicode hex="0060"/>
  <outline>
    <contour>
      <point x="329" y="555" type="line"/>
      <point x="276" y="555" type="line"/>
      <point x="171" y="702" type="line"/>
      <point x="228" y="702" type="line"/>
    </contour>
  </outline>
</glyph>
<glyph name="a" format="1">
  <advance width="530"/>
  <unicode hex="0061"/>
  <outline>
    <contour>
      <point x="449" y="50" type="line"/>
      <point x="399" y="9"/>
      <point x="335" y="-10"/>
      <point x="263" y="-10" type="curve" smooth="yes"/>
      <point x="192" y="-10"/>
      <point x="129" y="8"/>
      <point x="78" y="50" type="curve"/>
      <point x="78" y="226" type="line"/>
      <point x="125" y="261"/>
      <point x="192" y="279"/>
      <point x="259" y="279" type="curve" smooth="yes"/>
      <point x="316" y="279"/>
      <point x="364" y="267"/>
      <point x="406" y="247" type="curve"/>
      <point x="406" y="408" type="line"/>
      <point x="366" y="440"/>
      <point x="312" y="450"/>
      <point x="264" y="450" type="curve" smooth="yes"/>
      <point x="217" y="450"/>
      <point x="165" y="441"/>
      <point x="123" y="410" type="curve"/>
      <point x="123" y="345" type="line"/>
      <point x="80" y="345" type="line"/>
      <point x="80" y="433" type="line"/>
      <point x="130" y="473"/>
      <point x="197" y="490"/>
      <point x="264" y="490" type="curve" smooth="yes"/>
      <point x="330" y="490"/>
      <point x="398" y="472"/>
      <point x="449" y="431" type="curve"/>
    </contour>
    <contour>
      <point x="406" y="72" type="curve"/>
      <point x="406" y="206" type="line"/>
      <point x="367" y="227"/>
      <point x="320" y="239"/>
      <point x="263" y="240" type="curve" smooth="yes"/>
      <point x="215" y="240"/>
      <point x="161" y="232"/>
      <point x="119" y="202" type="curve"/>
      <point x="119" y="72" type="line"/>
      <point x="158" y="41"/>
      <point x="213" y="31"/>
      <point x="263" y="30" type="curve" smooth="yes"/>
      <point x="313" y="29"/>
      <point x="367" y="40"/>
    </contour>
  </outline>
</glyph>
<glyph name="b" format="1">
  <advance width="566"/>
  <unicode hex="0062"/>
  <outline>
    <contour>
      <point x="484" y="58" type="line"/>
      <point x="438" y="15"/>
      <point x="362" y="-10"/>
      <point x="287" y="-10" type="curve" smooth="yes"/>
      <point x="210" y="-10"/>
      <point x="135" y="16"/>
      <point x="89" y="58" type="curve"/>
      <point x="89" y="720" type="line"/>
      <point x="133" y="720" type="line"/>
      <point x="133" y="450" type="line"/>
      <point x="175" y="474"/>
      <point x="229" y="490"/>
      <point x="289" y="490" type="curve" smooth="yes"/>
      <point x="360" y="490"/>
      <point x="435" y="468"/>
      <point x="484" y="422" type="curve"/>
    </contour>
    <contour>
      <point x="441" y="80" type="curve"/>
      <point x="441" y="401" type="line"/>
      <point x="402" y="435"/>
      <point x="338" y="449"/>
      <point x="287" y="449" type="curve" smooth="yes"/>
      <point x="225" y="449"/>
      <point x="174" y="433"/>
      <point x="133" y="404" type="curve"/>
      <point x="133" y="80" type="line"/>
      <point x="172" y="45"/>
      <point x="236" y="31"/>
      <point x="287" y="31" type="curve" smooth="yes"/>
      <point x="339" y="31"/>
      <point x="402" y="46"/>
    </contour>
  </outline>
</glyph>
<glyph name="c" format="1">
  <advance width="529"/>
  <unicode hex="0063"/>
  <outline>
    <contour>
      <point x="457" y="52" type="line"/>
      <point x="406" y="9"/>
      <point x="336" y="-10"/>
      <point x="269" y="-10" type="curve" smooth="yes"/>
      <point x="203" y="-10"/>
      <point x="132" y="8"/>
      <point x="81" y="52" type="curve"/>
      <point x="81" y="428" type="line"/>
      <point x="132" y="471"/>
      <point x="202" y="490"/>
      <point x="269" y="490" type="curve" smooth="yes"/>
      <point x="335" y="490"/>
      <point x="405" y="471"/>
      <point x="457" y="428" type="curve"/>
      <point x="457" y="336" type="line"/>
      <point x="413" y="336" type="line"/>
      <point x="413" y="406" type="line"/>
      <point x="372" y="439"/>
      <point x="316" y="449"/>
      <point x="269" y="449" type="curve" smooth="yes"/>
      <point x="222" y="449"/>
      <point x="166" y="440"/>
      <point x="125" y="406" type="curve"/>
      <point x="125" y="74" type="line"/>
      <point x="165" y="41"/>
      <point x="221" y="31"/>
      <point x="269" y="31" type="curve" smooth="yes"/>
      <point x="316" y="31"/>
      <point x="372" y="40"/>
      <point x="413" y="74" type="curve"/>
      <point x="413" y="145" type="line"/>
      <point x="457" y="145" type="line"/>
    </contour>
  </outline>
</glyph>
<glyph name="e" format="1">
  <advance width="532"/>
  <unicode hex="0065"/>
  <outline>
    <contour>
      <point x="453" y="52" type="line"/>
      <point x="402" y="9"/>
      <point x="334" y="-10"/>
      <point x="267" y="-10" type="curve" smooth="yes"/>
      <point x="201" y="-10"/>
      <point x="132" y="8"/>
      <point x="81" y="52" type="curve"/>
      <point x="81" y="426" type="line"/>
      <point x="130" y="469"/>
      <point x="197" y="490"/>
      <point x="267" y="490" type="curve" smooth="yes"/>
      <point x="335" y="490"/>
      <point x="403" y="469"/>
      <point x="452" y="426" type="curve"/>
      <point x="452" y="225" type="line"/>
      <point x="123" y="225" type="line"/>
      <point x="123" y="74" type="line"/>
      <point x="164" y="41"/>
      <point x="220" y="31"/>
      <point x="267" y="31" type="curve" smooth="yes"/>
      <point x="314" y="31"/>
      <point x="368" y="40"/>
      <point x="409" y="74" type="curve"/>
      <point x="409" y="139" type="line"/>
      <point x="453" y="139" type="line"/>
    </contour>
    <contour>
      <point x="409" y="263" type="line"/>
      <point x="409" y="404" type="line"/>
      <point x="370" y="437"/>
      <point x="317" y="449"/>
      <point x="267" y="449" type="curve" smooth="yes"/>
      <point x="218" y="449"/>
      <point x="164" y="438"/>
      <point x="123" y="404" type="curve"/>
      <point x="123" y="263" type="line"/>
    </contour>
  </outline>
</glyph>
<glyph name="f" format="1">
  <advance width="325"/>
  <unicode hex="0066"/>
  <outline>
    <contour>
      <point x="301" y="684" type="line"/>
      <point x="271" y="684" type="line" smooth="yes"/>
      <point x="231" y="684"/>
      <point x="197" y="667"/>
      <point x="176" y="640" type="curve"/>
      <point x="176" y="480" type="line"/>
      <point x="291" y="480" type="line"/>
      <point x="291" y="440" type="line"/>
      <point x="176" y="440" type="line"/>
      <point x="176" y="0" type="line"/>
      <point x="132" y="0" type="line"/>
      <point x="132" y="440" type="line"/>
      <point x="58" y="440" type="line"/>
      <point x="58" y="480" type="line"/>
      <point x="132" y="480" type="line"/>
      <point x="132" y="657" type="line"/>
      <point x="165" y="702"/>
      <point x="216" y="725"/>
      <point x="271" y="725" type="curve" smooth="yes"/>
      <point x="301" y="725" type="line"/>
    </contour>
  </outline>
</glyph>
<glyph name="h" format="1">
  <advance width="569"/>
  <unicode hex="0068"/>
  <outline>
    <contour>
      <point x="480" y="0" type="line"/>
      <point x="437" y="0" type="line"/>
      <point x="437" y="404" type="line"/>
      <point x="396" y="438"/>
      <point x="332" y="449"/>
      <point x="285" y="449" type="curve" smooth="yes"/>
      <point x="229" y="449"/>
      <point x="175" y="435"/>
      <point x="133" y="406" type="curve"/>
      <point x="133" y="0" type="line"/>
      <point x="89" y="0" type="line"/>
      <point x="89" y="720" type="line"/>
      <point x="133" y="720" type="line"/>
      <point x="133" y="450" type="line"/>
      <point x="176" y="475"/>
      <point x="229" y="490"/>
      <point x="289" y="490" type="curve" smooth="yes"/>
      <point x="358" y="490"/>
      <point x="430" y="470"/>
      <point x="480" y="426" type="curve"/>
    </contour>
  </outline>
</glyph>
<glyph name="i" format="1">
  <advance width="234"/>
  <unicode hex="0069"/>
  <outline>
    <contour>
      <point x="141" y="619" type="line"/>
      <point x="93" y="619" type="line"/>
      <point x="93" y="720" type="line"/>
      <point x="141" y="720" type="line"/>
    </contour>
    <contour>
      <point x="139" y="0" type="line"/>
      <point x="95" y="0" type="line"/>
      <point x="95" y="480" type="line"/>
      <point x="139" y="480" type="line"/>
    </contour>
  </outline>
</glyph>
<glyph name="j" format="1">
  <advance width="234"/>
  <unicode hex="006A"/>
  <outline>
    <contour>
      <point x="141" y="619" type="line"/>
      <point x="93" y="619" type="line"/>
      <point x="93" y="720" type="line"/>
      <point x="141" y="720" type="line"/>
    </contour>
    <contour>
      <point x="139" y="-118" type="line"/>
      <point x="107" y="-162"/>
      <point x="59" y="-180"/>
      <point x="6" y="-180" type="curve" smooth="yes"/>
      <point x="-10" y="-180" type="line"/>
      <point x="-10" y="-139" type="line"/>
      <point x="6" y="-139" type="line" smooth="yes"/>
      <point x="41" y="-139"/>
      <point x="75" y="-128"/>
      <point x="95" y="-102" type="curve"/>
      <point x="95" y="480" type="line"/>
      <point x="139" y="480" type="line"/>
    </contour>
  </outline>
</glyph>
<glyph name="k" format="1">
  <advance width="513"/>
  <unicode hex="006B"/>
  <outline>
    <contour>
      <point x="433" y="0" type="line"/>
      <point x="389" y="0" type="line"/>
      <point x="389" y="144" type="line"/>
      <point x="360" y="190"/>
      <point x="309" y="221"/>
      <point x="233" y="221" type="curve" smooth="yes"/>
      <point x="133" y="221" type="line"/>
      <point x="133" y="0" type="line"/>
      <point x="89" y="0" type="line"/>
      <point x="89" y="720" type="line"/>
      <point x="133" y="720" type="line"/>
      <point x="133" y="260" type="line"/>
      <point x="232" y="260" type="line" smooth="yes"/>
      <point x="306" y="260"/>
      <point x="351" y="289"/>
      <point x="380" y="332" type="curve"/>
      <point x="380" y="480" type="line"/>
      <point x="424" y="480" type="line"/>
      <point x="424" y="317" type="line"/>
      <point x="396" y="281"/>
      <point x="361" y="253"/>
      <point x="309" y="241" type="curve"/>
      <point x="362" y="228"/>
      <point x="400" y="205"/>
      <point x="433" y="161" type="curve"/>
    </contour>
  </outline>
</glyph>
<glyph name="m" format="1">
  <advance width="752"/>
  <unicode hex="006D"/>
  <outline>
    <contour>
      <point x="663" y="0" type="line"/>
      <point x="619" y="0" type="line"/>
      <point x="619" y="399" type="line"/>
      <point x="562" y="432"/>
      <point x="496" y="448"/>
      <point x="398" y="450" type="curve"/>
      <point x="398" y="0" type="line"/>
      <point x="354" y="0" type="line"/>
      <point x="354" y="450" type="line"/>
      <point x="256" y="448"/>
      <point x="191" y="432"/>
      <point x="133" y="399" type="curve"/>
      <point x="133" y="0" type="line"/>
      <point x="89" y="0" type="line"/>
      <point x="89" y="421" type="line"/>
      <point x="169" y="469"/>
      <point x="262" y="490"/>
      <point x="376" y="490" type="curve" smooth="yes"/>
      <point x="488" y="490"/>
      <point x="581" y="469"/>
      <point x="663" y="421" type="curve"/>
    </contour>
  </outline>
</glyph>
<glyph name="n" format="1">
  <advance width="563"/>
  <unicode hex="006E"/>
  <outline>
    <contour>
      <point x="474" y="0" type="line"/>
      <point x="431" y="0" type="line"/>
      <point x="431" y="404" type="line"/>
      <point x="390" y="438"/>
      <point x="329" y="449"/>
      <point x="282" y="449" type="curve" smooth="yes"/>
      <point x="235" y="449"/>
      <point x="174" y="439"/>
      <point x="133" y="404" type="curve"/>
      <point x="133" y="0" type="line"/>
      <point x="89" y="0" type="line"/>
      <point x="89" y="428" type="line"/>
      <point x="140" y="471"/>
      <point x="215" y="490"/>
      <point x="282" y="490" type="curve" smooth="yes"/>
      <point x="348" y="490"/>
      <point x="423" y="471"/>
      <point x="474" y="428" type="curve"/>
    </contour>
  </outline>
</glyph>
<glyph name="o" format="1">
  <advance width="558"/>
  <unicode hex="006F"/>
  <outline>
    <contour>
      <point x="477" y="58" type="line"/>
      <point x="431" y="16"/>
      <point x="356" y="-10"/>
      <point x="279" y="-10" type="curve" smooth="yes"/>
      <point x="204" y="-10"/>
      <point x="128" y="15"/>
      <point x="81" y="58" type="curve"/>
      <point x="81" y="422" type="line"/>
      <point x="127" y="465"/>
      <point x="202" y="490"/>
      <point x="279" y="490" type="curve" smooth="yes"/>
      <point x="354" y="490"/>
      <point x="430" y="465"/>
      <point x="477" y="422" type="curve"/>
    </contour>
    <contour>
      <point x="433" y="80" type="curve"/>
      <point x="433" y="401" type="line"/>
      <point x="394" y="435"/>
      <point x="331" y="449"/>
      <point x="279" y="449" type="curve" smooth="yes"/>
      <point x="228" y="449"/>
      <point x="164" y="435"/>
      <point x="125" y="401" type="curve"/>
      <point x="125" y="80" type="line"/>
      <point x="163" y="46"/>
      <point x="227" y="31"/>
      <point x="279" y="31" type="curve" smooth="yes"/>
      <point x="330" y="31"/>
      <point x="394" y="45"/>
    </contour>
  </outline>
</glyph>
<glyph name="p" format="1">
  <advance width="566"/>
  <unicode hex="0070"/>
  <outline>
    <contour>
      <point x="484" y="58" type="line"/>
      <point x="435" y="13"/>
      <point x="360" y="-10"/>
      <point x="289" y="-10" type="curve" smooth="yes"/>
      <point x="229" y="-10"/>
      <point x="175" y="7"/>
      <point x="133" y="30" type="curve"/>
      <point x="133" y="-175" type="line"/>
      <point x="89" y="-175" type="line"/>
      <point x="89" y="422" type="line"/>
      <point x="135" y="465"/>
      <point x="210" y="490"/>
      <point x="287" y="490" type="curve" smooth="yes"/>
      <point x="362" y="490"/>
      <point x="438" y="465"/>
      <point x="484" y="422" type="curve"/>
    </contour>
    <contour>
      <point x="441" y="80" type="curve"/>
      <point x="441" y="400" type="line"/>
      <point x="402" y="434"/>
      <point x="339" y="449"/>
      <point x="287" y="449" type="curve" smooth="yes"/>
      <point x="236" y="449"/>
      <point x="172" y="435"/>
      <point x="133" y="400" type="curve"/>
      <point x="133" y="76" type="line"/>
      <point x="174" y="48"/>
      <point x="225" y="31"/>
      <point x="287" y="31" type="curve" smooth="yes"/>
      <point x="338" y="31"/>
      <point x="402" y="45"/>
    </contour>
  </outline>
</glyph>
<glyph name="q" format="1">
  <advance width="566"/>
  <unicode hex="0071"/>
  <outline>
    <contour>
      <point x="477" y="-175" type="line"/>
      <point x="433" y="-175" type="line"/>
      <point x="433" y="30" type="line"/>
      <point x="391" y="7"/>
      <point x="336" y="-10"/>
      <point x="277" y="-10" type="curve" smooth="yes"/>
      <point x="206" y="-10"/>
      <point x="130" y="13"/>
      <point x="81" y="58" type="curve"/>
      <point x="81" y="422" type="line"/>
      <point x="128" y="465"/>
      <point x="204" y="490"/>
      <point x="279" y="490" type="curve" smooth="yes"/>
      <point x="356" y="490"/>
      <point x="431" y="465"/>
      <point x="477" y="422" type="curve"/>
    </contour>
    <contour>
      <point x="433" y="76" type="curve"/>
      <point x="433" y="400" type="line"/>
      <point x="394" y="435"/>
      <point x="330" y="449"/>
      <point x="279" y="449" type="curve" smooth="yes"/>
      <point x="227" y="449"/>
      <point x="163" y="434"/>
      <point x="125" y="400" type="curve"/>
      <point x="125" y="80" type="line"/>
      <point x="164" y="45"/>
      <point x="228" y="31"/>
      <point x="279" y="31" type="curve" smooth="yes"/>
      <point x="340" y="31"/>
      <point x="392" y="48"/>
    </contour>
  </outline>
</glyph>
<glyph name="r" format="1">
  <advance width="344"/>
  <unicode hex="0072"/>
  <outline>
    <contour>
      <point x="309" y="444" type="line"/>
      <point x="247" y="444" type="line" smooth="yes"/>
      <point x="200" y="444"/>
      <point x="157" y="424"/>
      <point x="133" y="394" type="curve"/>
      <point x="133" y="0" type="line"/>
      <point x="89" y="0" type="line"/>
      <point x="89" y="416" type="line"/>
      <point x="128" y="460"/>
      <point x="186" y="485"/>
      <point x="247" y="485" type="curve" smooth="yes"/>
      <point x="309" y="485" type="line"/>
    </contour>
  </outline>
</glyph>
<glyph name="s" format="1">
  <advance width="528"/>
  <unicode hex="0073"/>
  <outline>
    <contour>
      <point x="443" y="46" type="line"/>
      <point x="392" y="7"/>
      <point x="330" y="-10"/>
      <point x="264" y="-10" type="curve" smooth="yes"/>
      <point x="197" y="-10"/>
      <point x="136" y="8"/>
      <point x="86" y="46" type="curve"/>
      <point x="86" y="144" type="line"/>
      <point x="129" y="144" type="line"/>
      <point x="129" y="69" type="line"/>
      <point x="168" y="40"/>
      <point x="218" y="30"/>
      <point x="264" y="30" type="curve" smooth="yes"/>
      <point x="312" y="31"/>
      <point x="359" y="40"/>
      <point x="400" y="70" type="curve"/>
      <point x="400" y="167" type="line"/>
      <point x="87" y="286" type="line"/>
      <point x="87" y="433" type="line"/>
      <point x="137" y="472"/>
      <point x="196" y="490"/>
      <point x="264" y="490" type="curve" smooth="yes"/>
      <point x="330" y="490"/>
      <point x="390" y="473"/>
      <point x="441" y="433" type="curve"/>
      <point x="441" y="336" type="line"/>
      <point x="398" y="336" type="line"/>
      <point x="398" y="412" type="line"/>
      <point x="357" y="441"/>
      <point x="311" y="450"/>
      <point x="264" y="450" type="curve" smooth="yes"/>
      <point x="217" y="450"/>
      <point x="172" y="441"/>
      <point x="130" y="411" type="curve"/>
      <point x="130" y="314" type="line"/>
      <point x="443" y="195" type="line"/>
    </contour>
  </outline>
</glyph>
<glyph name="t" format="1">
  <advance width="353"/>
  <unicode hex="0074"/>
  <outline>
    <contour>
      <point x="291" y="-5" type="line"/>
      <point x="262" y="-5" type="line" smooth="yes"/>
      <point x="209" y="-5"/>
      <point x="159" y="18"/>
      <point x="128" y="61" type="curve"/>
      <point x="128" y="440" type="line"/>
      <point x="54" y="440" type="line"/>
      <point x="54" y="480" type="line"/>
      <point x="128" y="480" type="line"/>
      <point x="128" y="640" type="line"/>
      <point x="171" y="640" type="line"/>
      <point x="171" y="480" type="line"/>
      <point x="286" y="480" type="line"/>
      <point x="286" y="440" type="line"/>
      <point x="171" y="440" type="line"/>
      <point x="171" y="78" type="line"/>
      <point x="192" y="52"/>
      <point x="225" y="36"/>
      <point x="263" y="36" type="curve" smooth="yes"/>
      <point x="291" y="36" type="line"/>
    </contour>
  </outline>
</glyph>
<glyph name="u" format="1">
  <advance width="563"/>
  <unicode hex="0075"/>
  <outline>
    <contour>
      <point x="474" y="52" type="line"/>
      <point x="424" y="9"/>
      <point x="349" y="-10"/>
      <point x="282" y="-10" type="curve" smooth="yes"/>
      <point x="216" y="-10"/>
      <point x="140" y="8"/>
      <point x="89" y="52" type="curve"/>
      <point x="89" y="480" type="line"/>
      <point x="133" y="480" type="line"/>
      <point x="133" y="76" type="line"/>
      <point x="173" y="42"/>
      <point x="234" y="31"/>
      <point x="282" y="31" type="curve" smooth="yes"/>
      <point x="329" y="31"/>
      <point x="390" y="42"/>
      <point x="431" y="76" type="curve"/>
      <point x="431" y="480" type="line"/>
      <point x="474" y="480" type="line"/>
    </contour>
  </outline>
</glyph>
<glyph name="v" format="1">
  <advance width="556"/>
  <unicode hex="0076"/>
  <outline>
    <contour>
      <point x="471" y="379" type="line" smooth="yes"/>
      <point x="471" y="217"/>
      <point x="422" y="99"/>
      <point x="298" y="-7" type="curve"/>
      <point x="259" y="-7" type="line"/>
      <point x="136" y="98"/>
      <point x="86" y="216"/>
      <point x="86" y="379" type="curve" smooth="yes"/>
      <point x="86" y="480" type="line"/>
      <point x="131" y="480" type="line"/>
      <point x="131" y="380" type="line" smooth="yes"/>
      <point x="131" y="230"/>
      <point x="173" y="120"/>
      <point x="278" y="29" type="curve"/>
      <point x="384" y="119"/>
      <point x="427" y="229"/>
      <point x="427" y="380" type="curve" smooth="yes"/>
      <point x="427" y="480" type="line"/>
      <point x="471" y="480" type="line"/>
    </contour>
  </outline>
</glyph>
<glyph name="w" format="1">
  <advance width="752"/>
  <unicode hex="0077"/>
  <outline>
    <contour>
      <point x="663" y="59" type="line"/>
      <point x="583" y="12"/>
      <point x="490" y="-10"/>
      <point x="376" y="-10" type="curve" smooth="yes"/>
      <point x="264" y="-10"/>
      <point x="170" y="11"/>
      <point x="89" y="59" type="curve"/>
      <point x="89" y="480" type="line"/>
      <point x="133" y="480" type="line"/>
      <point x="133" y="82" type="line"/>
      <point x="190" y="48"/>
      <point x="256" y="32"/>
      <point x="354" y="31" type="curve"/>
      <point x="354" y="480" type="line"/>
      <point x="398" y="480" type="line"/>
      <point x="398" y="31" type="line"/>
      <point x="496" y="32"/>
      <point x="561" y="48"/>
      <point x="619" y="82" type="curve"/>
      <point x="619" y="480" type="line"/>
      <point x="663" y="480" type="line"/>
    </contour>
  </outline>
</glyph>
<glyph name="x" format="1">
  <advance width="542"/>
  <unicode hex="0078"/>
  <outline>
    <contour>
      <point x="456" y="0" type="line"/>
      <point x="412" y="0" type="line"/>
      <point x="412" y="157" type="line"/>
      <point x="378" y="199"/>
      <point x="326" y="219"/>
      <point x="271" y="219" type="curve" smooth="yes"/>
      <point x="216" y="219"/>
      <point x="164" y="199"/>
      <point x="130" y="157" type="curve"/>
      <point x="130" y="0" type="line"/>
      <point x="86" y="0" type="line"/>
      <point x="86" y="173" type="line"/>
      <point x="122" y="210"/>
      <point x="163" y="229"/>
      <point x="202" y="240" type="curve"/>
      <point x="162" y="251"/>
      <point x="121" y="271"/>
      <point x="90" y="307" type="curve"/>
      <point x="90" y="480" type="line"/>
      <point x="134" y="480" type="line"/>
      <point x="134" y="319" type="line"/>
      <point x="168" y="278"/>
      <point x="221" y="261"/>
      <point x="271" y="261" type="curve" smooth="yes"/>
      <point x="321" y="261"/>
      <point x="374" y="278"/>
      <point x="408" y="319" type="curve"/>
      <point x="408" y="480" type="line"/>
      <point x="452" y="480" type="line"/>
      <point x="452" y="307" type="line"/>
      <point x="421" y="271"/>
      <point x="380" y="251"/>
      <point x="340" y="240" type="curve"/>
      <point x="379" y="229"/>
      <point x="420" y="210"/>
      <point x="456" y="173" type="curve"/>
    </contour>
  </outline>
</glyph>
<glyph name="y" format="1">
  <advance width="569"/>
  <unicode hex="0079"/>
  <outline>
    <contour>
      <point x="480" y="-124" type="line"/>
      <point x="435" y="-163"/>
      <point x="361" y="-185"/>
      <point x="285" y="-185" type="curve" smooth="yes"/>
      <point x="212" y="-185"/>
      <point x="136" y="-165"/>
      <point x="89" y="-126" type="curve"/>
      <point x="89" y="-60" type="line"/>
      <point x="133" y="-60" type="line"/>
      <point x="133" y="-103" type="line"/>
      <point x="172" y="-135"/>
      <point x="232" y="-145"/>
      <point x="285" y="-145" type="curve" smooth="yes"/>
      <point x="337" y="-145"/>
      <point x="397" y="-134"/>
      <point x="437" y="-101" type="curve"/>
      <point x="437" y="30" type="line"/>
      <point x="393" y="5"/>
      <point x="341" y="-10"/>
      <point x="281" y="-10" type="curve" smooth="yes"/>
      <point x="211" y="-10"/>
      <point x="139" y="10"/>
      <point x="89" y="55" type="curve"/>
      <point x="89" y="480" type="line"/>
      <point x="133" y="480" type="line"/>
      <point x="133" y="76" type="line"/>
      <point x="173" y="42"/>
      <point x="237" y="31"/>
      <point x="285" y="31" type="curve" smooth="yes"/>
      <point x="341" y="31"/>
      <point x="394" y="46"/>
      <point x="437" y="74" type="curve"/>
      <point x="437" y="480" type="line"/>
      <point x="480" y="480" type="line"/>
    </contour>
  </outline>
</glyph>
<glyph name="z" format="1">
  <advance width="492"/>
  <unicode hex="007A"/>
  <outline>
    <contour>
      <point x="433" y="0" type="line"/>
      <point x="60" y="0" type="line"/>
      <point x="60" y="34" type="line"/>
      <point x="376" y="440" type="line"/>
      <point x="84" y="440" type="line"/>
      <point x="84" y="480" type="line"/>
      <point x="429" y="480" type="line"/>
      <point x="429" y="445" type="line"/>
      <point x="115" y="40" type="line"/>
      <point x="433" y="40" type="line"/>
    </contour>
  </outline>
</glyph>
<glyph name="braceleft" format="1">
  <advance width="424"/>
  <unicode hex="007B"/>
  <outline>
    <contour>
      <point x="348" y="-14" type="line"/>
      <point x="273" y="-10"/>
      <point x="203" y="25"/>
      <point x="161" y="74" type="curve"/>
      <point x="161" y="294" type="line"/>
      <point x="136" y="328"/>
      <point x="94" y="346"/>
      <point x="50" y="346" type="curve"/>
      <point x="50" y="386" type="line"/>
      <point x="93" y="386"/>
      <point x="136" y="403"/>
      <point x="161" y="438" type="curve"/>
      <point x="161" y="642" type="line"/>
      <point x="203" y="690"/>
      <point x="273" y="726"/>
      <point x="348" y="730" type="curve"/>
      <point x="348" y="685" type="line"/>
      <point x="291" y="680"/>
      <point x="236" y="653"/>
      <point x="207" y="620" type="curve"/>
      <point x="207" y="426" type="line"/>
      <point x="183" y="394"/>
      <point x="153" y="376"/>
      <point x="111" y="366" type="curve"/>
      <point x="152" y="356"/>
      <point x="183" y="338"/>
      <point x="207" y="306" type="curve"/>
      <point x="207" y="96" type="line"/>
      <point x="236" y="63"/>
      <point x="291" y="36"/>
      <point x="348" y="31" type="curve"/>
    </contour>
  </outline>
</glyph>
<glyph name="bar" format="1">
  <advance width="256"/>
  <unicode hex="007C"/>
  <outline>
    <contour>
      <point x="149" y="-175" type="line"/>
      <point x="107" y="-175" type="line"/>
      <point x="107" y="780" type="line"/>
      <point x="149" y="780" type="line"/>
    </contour>
  </outline>
</glyph>
<glyph name="braceright" format="1">
  <advance width="424"/>
  <unicode hex="007D"/>
  <outline>
    <contour>
      <point x="374" y="346" type="line"/>
      <point x="330" y="346"/>
      <point x="288" y="328"/>
      <point x="263" y="294" type="curve"/>
      <point x="263" y="74" type="line"/>
      <point x="221" y="25"/>
      <point x="151" y="-10"/>
      <point x="77" y="-14" type="curve"/>
      <point x="77" y="31" type="line"/>
      <point x="134" y="36"/>
      <point x="189" y="63"/>
      <point x="217" y="96" type="curve"/>
      <point x="217" y="306" type="line"/>
      <point x="241" y="338"/>
      <point x="272" y="356"/>
      <point x="313" y="366" type="curve"/>
      <point x="271" y="376"/>
      <point x="241" y="394"/>
      <point x="217" y="426" type="curve"/>
      <point x="217" y="620" type="line"/>
      <point x="188" y="653"/>
      <point x="133" y="680"/>
      <point x="77" y="685" type="curve"/>
      <point x="77" y="730" type="line"/>
      <point x="152" y="726"/>
      <point x="221" y="690"/>
      <point x="263" y="642" type="curve"/>
      <point x="263" y="438" type="line"/>
      <point x="288" y="403"/>
      <point x="331" y="386"/>
      <point x="374" y="386" type="curve"/>
    </contour>
  </outline>
</glyph>
<glyph name="asciitilde" format="1">
  <advance width="507"/>
  <unicode hex="007E"/>
  <outline>
    <contour>
      <point x="436" y="460" type="line"/>
      <point x="346" y="279" type="line"/>
      <point x="298" y="279" type="line"/>
      <point x="189" y="423" type="line"/>
      <point x="117" y="279" type="line"/>
      <point x="72" y="279" type="line"/>
      <point x="162" y="460" type="line"/>
      <point x="161" y="460"/>
      <point x="209" y="460"/>
      <point x="209" y="460" type="curve"/>
      <point x="319" y="316" type="line"/>
      <point x="390" y="460" type="line"/>
    </contour>
  </outline>
</glyph>
<glyph name="exclamdown" format="1">
  <advance width="252"/>
  <unicode hex="00A1"/>
  <outline>
    <contour>
      <point x="150" y="613" type="line"/>
      <point x="102" y="613" type="line"/>
      <point x="102" y="720" type="line"/>
      <point x="150" y="720" type="line"/>
    </contour>
    <contour>
      <point x="148" y="0" type="line"/>
      <point x="104" y="0" type="line"/>
      <point x="104" y="509" type="line"/>
      <point x="148" y="509" type="line"/>
    </contour>
  </outline>
</glyph>
<glyph name="cent" format="1">
  <advance width="529"/>
  <unicode hex="00A2"/>
  <outline>
    <contour>
      <point x="457" y="172" type="line"/>
      <point x="411" y="134"/>
      <point x="351" y="115"/>
      <point x="291" y="111" type="curve"/>
      <point x="291" y="0" type="line"/>
      <point x="247" y="0" type="line"/>
      <point x="247" y="111" type="line"/>
      <point x="188" y="115"/>
      <point x="127" y="133"/>
      <point x="81" y="172" type="curve"/>
      <point x="81" y="548" type="line"/>
      <point x="126" y="586"/>
      <point x="187" y="605"/>
      <point x="247" y="609" type="curve"/>
      <point x="247" y="720" type="line"/>
      <point x="291" y="720" type="line"/>
      <point x="291" y="609" type="line"/>
      <point x="350" y="605"/>
      <point x="410" y="587"/>
      <point x="457" y="548" type="curve"/>
      <point x="457" y="456" type="line"/>
      <point x="413" y="456" type="line"/>
      <point x="413" y="527" type="line"/>
      <point x="372" y="560"/>
      <point x="316" y="570"/>
      <point x="269" y="570" type="curve" smooth="yes"/>
      <point x="222" y="570"/>
      <point x="166" y="561"/>
      <point x="125" y="527" type="curve"/>
      <point x="125" y="193" type="line"/>
      <point x="165" y="160"/>
      <point x="221" y="150"/>
      <point x="269" y="150" type="curve" smooth="yes"/>
      <point x="316" y="150"/>
      <point x="372" y="159"/>
      <point x="413" y="193" type="curve"/>
      <point x="413" y="265" type="line"/>
      <point x="457" y="265" type="line"/>
    </contour>
  </outline>
</glyph>
<glyph name="sterling" format="1">
  <advance width="707"/>
  <unicode hex="00A3"/>
  <outline>
    <contour>
      <point x="637" y="0" type="line"/>
      <point x="69" y="0" type="line"/>
      <point x="69" y="43" type="line"/>
      <point x="151" y="43" type="line"/>
      <point x="151" y="340" type="line"/>
      <point x="69" y="340" type="line"/>
      <point x="69" y="383" type="line"/>
      <point x="151" y="383" type="line"/>
      <point x="151" y="652" type="line"/>
      <point x="222" y="708"/>
      <point x="312" y="730"/>
      <point x="393" y="730" type="curve" smooth="yes"/>
      <point x="472" y="730"/>
      <point x="564" y="708"/>
      <point x="635" y="652" type="curve"/>
      <point x="635" y="527" type="line"/>
      <point x="590" y="527" type="line"/>
      <point x="590" y="626" type="line"/>
      <point x="535" y="668"/>
      <point x="464" y="687"/>
      <point x="393" y="687" type="curve" smooth="yes"/>
      <point x="323" y="687"/>
      <point x="253" y="668"/>
      <point x="197" y="626" type="curve"/>
      <point x="197" y="383" type="line"/>
      <point x="460" y="383" type="line"/>
      <point x="460" y="340" type="line"/>
      <point x="197" y="340" type="line"/>
      <point x="197" y="43" type="line"/>
      <point x="637" y="43" type="line"/>
    </contour>
  </outline>
</glyph>
<glyph name="yen" format="1">
  <advance width="738"/>
  <unicode hex="00A5"/>
  <outline>
    <contour>
      <point x="628" y="366" type="line"/>
      <point x="566" y="303"/>
      <point x="476" y="271"/>
      <point x="391" y="265" type="curve"/>
      <point x="391" y="158" type="line"/>
      <point x="550" y="158" type="line"/>
      <point x="550" y="117" type="line"/>
      <point x="391" y="117" type="line"/>
      <point x="391" y="0" type="line"/>
      <point x="347" y="0" type="line"/>
      <point x="347" y="117" type="line"/>
      <point x="188" y="117" type="line"/>
      <point x="188" y="158" type="line"/>
      <point x="347" y="158" type="line"/>
      <point x="347" y="265" type="line"/>
      <point x="264" y="271"/>
      <point x="172" y="303"/>
      <point x="110" y="366" type="curve"/>
      <point x="110" y="720" type="line"/>
      <point x="156" y="720" type="line"/>
      <point x="156" y="386" type="line"/>
      <point x="213" y="328"/>
      <point x="293" y="307"/>
      <point x="369" y="307" type="curve" smooth="yes"/>
      <point x="445" y="307"/>
      <point x="524" y="328"/>
      <point x="582" y="386" type="curve"/>
      <point x="582" y="720" type="line"/>
      <point x="628" y="720" type="line"/>
    </contour>
  </outline>
</glyph>
<glyph name="section" format="1">
  <advance width="726"/>
  <unicode hex="00A7"/>
  <outline>
    <contour>
      <point x="622" y="149" type="line"/>
      <point x="593" y="128"/>
      <point x="559" y="111"/>
      <point x="520" y="99" type="curve"/>
      <point x="604" y="31" type="line"/>
      <point x="604" y="-118" type="line"/>
      <point x="533" y="-167"/>
      <point x="445" y="-185"/>
      <point x="363" y="-185" type="curve" smooth="yes"/>
      <point x="282" y="-185"/>
      <point x="194" y="-167"/>
      <point x="122" y="-118" type="curve"/>
      <point x="122" y="6" type="line"/>
      <point x="168" y="6" type="line"/>
      <point x="168" y="-91" type="line"/>
      <point x="222" y="-127"/>
      <point x="291" y="-142"/>
      <point x="363" y="-142" type="curve" smooth="yes"/>
      <point x="434" y="-142"/>
      <point x="502" y="-127"/>
      <point x="558" y="-91" type="curve"/>
      <point x="558" y="14" type="line"/>
      <point x="468" y="87" type="line"/>
      <point x="435" y="79"/>
      <point x="400" y="75"/>
      <point x="363" y="75" type="curve" smooth="yes"/>
      <point x="259" y="75"/>
      <point x="170" y="102"/>
      <point x="104" y="149" type="curve"/>
      <point x="104" y="395" type="line"/>
      <point x="133" y="417"/>
      <point x="168" y="434"/>
      <point x="206" y="446" type="curve"/>
      <point x="122" y="514" type="line"/>
      <point x="122" y="663" type="line"/>
      <point x="193" y="712"/>
      <point x="280" y="730"/>
      <point x="363" y="730" type="curve" smooth="yes"/>
      <point x="444" y="730"/>
      <point x="532" y="712"/>
      <point x="604" y="663" type="curve"/>
      <point x="604" y="539" type="line"/>
      <point x="558" y="539" type="line"/>
      <point x="558" y="636" type="line"/>
      <point x="504" y="672"/>
      <point x="435" y="687"/>
      <point x="363" y="687" type="curve" smooth="yes"/>
      <point x="292" y="687"/>
      <point x="223" y="672"/>
      <point x="168" y="636" type="curve"/>
      <point x="168" y="531" type="line"/>
      <point x="257" y="457" type="line"/>
      <point x="290" y="466"/>
      <point x="326" y="470"/>
      <point x="363" y="470" type="curve" smooth="yes"/>
      <point x="466" y="470"/>
      <point x="555" y="443"/>
      <point x="622" y="395" type="curve"/>
    </contour>
    <contour>
      <point x="577" y="172" type="curve"/>
      <point x="577" y="373" type="line"/>
      <point x="520" y="410"/>
      <point x="448" y="430"/>
      <point x="363" y="430" type="curve" smooth="yes"/>
      <point x="277" y="430"/>
      <point x="205" y="410"/>
      <point x="148" y="373" type="curve"/>
      <point x="148" y="172" type="line"/>
      <point x="205" y="135"/>
      <point x="277" y="115"/>
      <point x="363" y="115" type="curve" smooth="yes"/>
      <point x="448" y="115"/>
      <point x="520" y="135"/>
    </contour>
  </outline>
</glyph>
<glyph name="dieresis" format="1">
  <advance width="500"/>
  <unicode hex="00A8"/>
  <outline>
    <contour>
      <point x="361" y="555" type="line"/>
      <point x="313" y="555" type="line"/>
      <point x="313" y="665" type="line"/>
      <point x="361" y="665" type="line"/>
    </contour>
    <contour>
      <point x="187" y="555" type="line"/>
      <point x="139" y="555" type="line"/>
      <point x="139" y="665" type="line"/>
      <point x="187" y="665" type="line"/>
    </contour>
  </outline>
</glyph>
<glyph name="copyright" format="1">
  <advance width="836"/>
  <unicode hex="00A9"/>
  <outline>
    <contour>
      <point x="731" y="92" type="line"/>
      <point x="651" y="23"/>
      <point x="535" y="-10"/>
      <point x="418" y="-10" type="curve" smooth="yes"/>
      <point x="300" y="-10"/>
      <point x="184" y="23"/>
      <point x="105" y="92" type="curve"/>
      <point x="105" y="628" type="line"/>
      <point x="184" y="697"/>
      <point x="300" y="730"/>
      <point x="418" y="730" type="curve" smooth="yes"/>
      <point x="535" y="730"/>
      <point x="651" y="697"/>
      <point x="731" y="628" type="curve"/>
    </contour>
    <contour>
      <point x="693" y="109" type="curve"/>
      <point x="693" y="611" type="line"/>
      <point x="624" y="667"/>
      <point x="517" y="695"/>
      <point x="418" y="695" type="curve" smooth="yes"/>
      <point x="320" y="695"/>
      <point x="213" y="668"/>
      <point x="143" y="611" type="curve"/>
      <point x="143" y="109" type="line"/>
      <point x="213" y="52"/>
      <point x="320" y="25"/>
      <point x="418" y="25" type="curve" smooth="yes"/>
      <point x="517" y="25"/>
      <point x="624" y="53"/>
    </contour>
    <contour>
      <point x="562" y="202" type="line"/>
      <point x="522" y="171"/>
      <point x="470" y="158"/>
      <point x="417" y="158" type="curve" smooth="yes"/>
      <point x="364" y="158"/>
      <point x="313" y="171"/>
      <point x="271" y="202" type="curve"/>
      <point x="271" y="521" type="line"/>
      <point x="312" y="552"/>
      <point x="363" y="565"/>
      <point x="417" y="565" type="curve" smooth="yes"/>
      <point x="469" y="565"/>
      <point x="521" y="553"/>
      <point x="562" y="521" type="curve"/>
      <point x="562" y="434" type="line"/>
      <point x="529" y="434" type="line"/>
      <point x="529" y="503" type="line"/>
      <point x="500" y="523"/>
      <point x="461" y="533"/>
      <point x="417" y="533" type="curve" smooth="yes"/>
      <point x="373" y="533"/>
      <point x="335" y="523"/>
      <point x="305" y="503" type="curve"/>
      <point x="305" y="221" type="line"/>
      <point x="334" y="200"/>
      <point x="373" y="190"/>
      <point x="417" y="190" type="curve" smooth="yes"/>
      <point x="460" y="190"/>
      <point x="499" y="200"/>
      <point x="529" y="221" type="curve"/>
      <point x="529" y="289" type="line"/>
      <point x="562" y="289" type="line"/>
    </contour>
  </outline>
</glyph>
<glyph name="ordfeminine" format="1">
  <advance width="516"/>
  <unicode hex="00AA"/>
  <outline>
    <contour>
      <point x="413" y="361" type="line"/>
      <point x="370" y="328"/>
      <point x="318" y="311"/>
      <point x="257" y="311" type="curve" smooth="yes"/>
      <point x="198" y="311"/>
      <point x="145" y="327"/>
      <point x="102" y="361" type="curve"/>
      <point x="102" y="508" type="line"/>
      <point x="142" y="537"/>
      <point x="197" y="552"/>
      <point x="254" y="552" type="curve" smooth="yes"/>
      <point x="301" y="552"/>
      <point x="339" y="543"/>
      <point x="375" y="527" type="curve"/>
      <point x="375" y="657" type="line"/>
      <point x="342" y="683"/>
      <point x="298" y="692"/>
      <point x="258" y="692" type="curve" smooth="yes"/>
      <point x="219" y="692"/>
      <point x="176" y="685"/>
      <point x="143" y="659" type="curve"/>
      <point x="143" y="605" type="line"/>
      <point x="104" y="605" type="line"/>
      <point x="104" y="679" type="line"/>
      <point x="147" y="713"/>
      <point x="203" y="727"/>
      <point x="258" y="727" type="curve" smooth="yes"/>
      <point x="313" y="727"/>
      <point x="369" y="712"/>
      <point x="413" y="677" type="curve"/>
    </contour>
    <contour>
      <point x="375" y="381" type="curve"/>
      <point x="375" y="491" type="line"/>
      <point x="342" y="507"/>
      <point x="304" y="517"/>
      <point x="257" y="518" type="curve" smooth="yes"/>
      <point x="217" y="518"/>
      <point x="173" y="512"/>
      <point x="139" y="488" type="curve"/>
      <point x="139" y="381" type="line"/>
      <point x="170" y="355"/>
      <point x="217" y="346"/>
      <point x="257" y="346" type="curve" smooth="yes"/>
      <point x="297" y="346"/>
      <point x="343" y="355"/>
    </contour>
  </outline>
</glyph>
<glyph name="guillemotleft" format="1">
  <advance width="604"/>
  <unicode hex="00AB"/>
  <outline>
    <contour>
      <point x="537" y="-10" type="line"/>
      <point x="309" y="220" type="line"/>
      <point x="309" y="260" type="line"/>
      <point x="537" y="490" type="line"/>
      <point x="537" y="433" type="line"/>
      <point x="347" y="240" type="line"/>
      <point x="537" y="48" type="line"/>
    </contour>
    <contour>
      <point x="279" y="-10" type="line"/>
      <point x="51" y="220" type="line"/>
      <point x="51" y="260" type="line"/>
      <point x="279" y="490" type="line"/>
      <point x="279" y="433" type="line"/>
      <point x="89" y="240" type="line"/>
      <point x="279" y="48" type="line"/>
    </contour>
  </outline>
</glyph>
<glyph name="macron" format="1">
  <advance width="500"/>
  <unicode hex="00AF"/>
  <unicode hex="02C9"/>
  <outline>
    <contour>
      <point x="397" y="559" type="line"/>
      <point x="103" y="559" type="line"/>
      <point x="103" y="602" type="line"/>
      <point x="397" y="602" type="line"/>
    </contour>
  </outline>
</glyph>
<glyph name="degree" format="1">
  <advance width="529"/>
  <unicode hex="00B0"/>
  <outline>
    <contour>
      <point x="439" y="400" type="line"/>
      <point x="393" y="357"/>
      <point x="333" y="334"/>
      <point x="265" y="334" type="curve" smooth="yes"/>
      <point x="197" y="334"/>
      <point x="137" y="357"/>
      <point x="90" y="400" type="curve"/>
      <point x="90" y="664" type="line"/>
      <point x="137" y="707"/>
      <point x="197" y="730"/>
      <point x="265" y="730" type="curve" smooth="yes"/>
      <point x="333" y="730"/>
      <point x="393" y="707"/>
      <point x="439" y="664" type="curve"/>
    </contour>
    <contour>
      <point x="398" y="419" type="curve"/>
      <point x="398" y="646" type="line"/>
      <point x="358" y="680"/>
      <point x="312" y="692"/>
      <point x="265" y="692" type="curve" smooth="yes"/>
      <point x="218" y="692"/>
      <point x="172" y="680"/>
      <point x="131" y="646" type="curve"/>
      <point x="131" y="419" type="line"/>
      <point x="172" y="384"/>
      <point x="218" y="372"/>
      <point x="265" y="372" type="curve" smooth="yes"/>
      <point x="312" y="372"/>
      <point x="358" y="384"/>
    </contour>
  </outline>
</glyph>
<glyph name="acute" format="1">
  <advance width="500"/>
  <unicode hex="00B4"/>
  <outline>
    <contour>
      <point x="329" y="702" type="line"/>
      <point x="224" y="555" type="line"/>
      <point x="171" y="555" type="line"/>
      <point x="272" y="702" type="line"/>
    </contour>
  </outline>
</glyph>
<glyph name="paragraph" format="1">
  <advance width="749"/>
  <unicode hex="00B6"/>
  <outline>
    <contour>
      <point x="628" y="0" type="line"/>
      <point x="584" y="0" type="line"/>
      <point x="584" y="679" type="line"/>
      <point x="471" y="679" type="line"/>
      <point x="471" y="0" type="line"/>
      <point x="426" y="0" type="line"/>
      <point x="426" y="288" type="line"/>
      <point x="334" y="288" type="line" smooth="yes"/>
      <point x="214" y="288"/>
      <point x="139" y="318"/>
      <point x="72" y="396" type="curve"/>
      <point x="72" y="613" type="line"/>
      <point x="139" y="691"/>
      <point x="214" y="720"/>
      <point x="334" y="720" type="curve" smooth="yes"/>
      <point x="628" y="720" type="line"/>
    </contour>
    <contour>
      <point x="426" y="329" type="line"/>
      <point x="426" y="679" type="line"/>
      <point x="333" y="679" type="line" smooth="yes"/>
      <point x="240" y="679"/>
      <point x="172" y="658"/>
      <point x="117" y="594" type="curve"/>
      <point x="117" y="415" type="line"/>
      <point x="173" y="350"/>
      <point x="241" y="329"/>
      <point x="333" y="329" type="curve" smooth="yes"/>
    </contour>
  </outline>
</glyph>
<glyph name="periodcentered" format="1">
  <advance width="228"/>
  <unicode hex="00B7"/>
  <unicode hex="2219"/>
  <outline>
    <contour>
      <point x="138" y="243" type="line"/>
      <point x="90" y="243" type="line"/>
      <point x="90" y="350" type="line"/>
      <point x="138" y="350" type="line"/>
    </contour>
  </outline>
</glyph>
<glyph name="cedilla" format="1">
  <advance width="500"/>
  <unicode hex="00B8"/>
  <outline>
    <contour>
      <point x="272" y="-89" type="line"/>
      <point x="242" y="-126"/>
      <point x="199" y="-136"/>
      <point x="155" y="-136" type="curve" smooth="yes"/>
      <point x="147" y="-136" type="line"/>
      <point x="147" y="-97" type="line"/>
      <point x="155" y="-97" type="line" smooth="yes"/>
      <point x="186" y="-97"/>
      <point x="211" y="-92"/>
      <point x="231" y="-71" type="curve"/>
      <point x="231" y="4" type="line"/>
      <point x="272" y="4" type="line"/>
    </contour>
  </outline>
</glyph>
<glyph name="ordmasculine" format="1">
  <advance width="530"/>
  <unicode hex="00BA"/>
  <outline>
    <contour>
      <point x="430" y="368" type="line"/>
      <point x="391" y="333"/>
      <point x="330" y="311"/>
      <point x="265" y="311" type="curve" smooth="yes"/>
      <point x="202" y="311"/>
      <point x="139" y="332"/>
      <point x="100" y="368" type="curve"/>
      <point x="100" y="671" type="line"/>
      <point x="138" y="706"/>
      <point x="201" y="727"/>
      <point x="265" y="727" type="curve" smooth="yes"/>
      <point x="328" y="727"/>
      <point x="390" y="707"/>
      <point x="430" y="671" type="curve"/>
    </contour>
    <contour>
      <point x="392" y="386" type="curve"/>
      <point x="392" y="652" type="line"/>
      <point x="360" y="679"/>
      <point x="307" y="691"/>
      <point x="265" y="691" type="curve" smooth="yes"/>
      <point x="224" y="691"/>
      <point x="171" y="680"/>
      <point x="139" y="653" type="curve"/>
      <point x="139" y="386" type="line"/>
      <point x="170" y="359"/>
      <point x="223" y="347"/>
      <point x="265" y="347" type="curve" smooth="yes"/>
      <point x="307" y="347"/>
      <point x="359" y="359"/>
    </contour>
  </outline>
</glyph>
<glyph name="guillemotright" format="1">
  <advance width="604"/>
  <unicode hex="00BB"/>
  <outline>
    <contour>
      <point x="553" y="220" type="line"/>
      <point x="325" y="-10" type="line"/>
      <point x="325" y="48" type="line"/>
      <point x="515" y="240" type="line"/>
      <point x="325" y="433" type="line"/>
      <point x="325" y="490" type="line"/>
      <point x="553" y="260" type="line"/>
    </contour>
    <contour>
      <point x="295" y="220" type="line"/>
      <point x="67" y="-10" type="line"/>
      <point x="67" y="48" type="line"/>
      <point x="257" y="240" type="line"/>
      <point x="67" y="433" type="line"/>
      <point x="67" y="490" type="line"/>
      <point x="295" y="260" type="line"/>
    </contour>
  </outline>
</glyph>
<glyph name="questiondown" format="1">
  <advance width="612"/>
  <unicode hex="00BF"/>
  <outline>
    <contour>
      <point x="328" y="613" type="line"/>
      <point x="280" y="613" type="line"/>
      <point x="280" y="720" type="line"/>
      <point x="328" y="720" type="line"/>
    </contour>
    <contour>
      <point x="548" y="72" type="line"/>
      <point x="476" y="13"/>
      <point x="388" y="-10"/>
      <point x="307" y="-10" type="curve" smooth="yes"/>
      <point x="224" y="-10"/>
      <point x="137" y="13"/>
      <point x="66" y="72" type="curve"/>
      <point x="66" y="237" type="line"/>
      <point x="281" y="425" type="line"/>
      <point x="281" y="513" type="line"/>
      <point x="327" y="513" type="line"/>
      <point x="327" y="411" type="line"/>
      <point x="112" y="223" type="line"/>
      <point x="112" y="97" type="line"/>
      <point x="167" y="52"/>
      <point x="236" y="33"/>
      <point x="307" y="33" type="curve" smooth="yes"/>
      <point x="379" y="33"/>
      <point x="448" y="52"/>
      <point x="502" y="97" type="curve"/>
      <point x="502" y="193" type="line"/>
      <point x="548" y="193" type="line"/>
    </contour>
  </outline>
</glyph>
<glyph name="Aring" format="1">
  <advance width="756"/>
  <unicode hex="00C5"/>
  <outline>
    <contour>
      <point x="643" y="0" type="line"/>
      <point x="597" y="0" type="line"/>
      <point x="597" y="297" type="line"/>
      <point x="159" y="297" type="line"/>
      <point x="159" y="0" type="line"/>
      <point x="113" y="0" type="line"/>
      <point x="113" y="636" type="line"/>
      <point x="188" y="700"/>
      <point x="283" y="730"/>
      <point x="378" y="730" type="curve" smooth="yes"/>
      <point x="473" y="730"/>
      <point x="569" y="700"/>
      <point x="643" y="636" type="curve"/>
    </contour>
    <contour>
      <point x="597" y="340" type="line"/>
      <point x="597" y="614" type="line"/>
      <point x="532" y="665"/>
      <point x="458" y="687"/>
      <point x="378" y="687" type="curve" smooth="yes"/>
      <point x="298" y="687"/>
      <point x="225" y="665"/>
      <point x="159" y="614" type="curve"/>
      <point x="159" y="340" type="line"/>
    </contour>
    <contour>
      <point x="510" y="823" type="line"/>
      <point x="477" y="797"/>
      <point x="426" y="782"/>
      <point x="378" y="782" type="curve" smooth="yes"/>
      <point x="330" y="782"/>
      <point x="279" y="797"/>
      <point x="246" y="823" type="curve"/>
      <point x="246" y="896" type="line"/>
      <point x="279" y="922"/>
      <point x="330" y="937"/>
      <point x="378" y="937" type="curve" smooth="yes"/>
      <point x="426" y="937"/>
      <point x="477" y="922"/>
      <point x="510" y="896" type="curve"/>
    </contour>
    <contour>
      <point x="476" y="837" type="curve"/>
      <point x="476" y="882" type="line"/>
      <point x="450" y="901"/>
      <point x="411" y="908"/>
      <point x="378" y="908" type="curve" smooth="yes"/>
      <point x="345" y="908"/>
      <point x="306" y="901"/>
      <point x="280" y="882" type="curve"/>
      <point x="280" y="837" type="line"/>
      <point x="306" y="818"/>
      <point x="345" y="811"/>
      <point x="378" y="811" type="curve" smooth="yes"/>
      <point x="411" y="811"/>
      <point x="450" y="818"/>
    </contour>
  </outline>
</glyph>
<glyph name="AE" format="1">
  <advance width="1205"/>
  <unicode hex="00C6"/>
  <outline>
    <contour>
      <point x="1101" y="62" type="line"/>
      <point x="1018" y="12"/>
      <point x="931" y="-10"/>
      <point x="838" y="-10" type="curve" smooth="yes"/>
      <point x="744" y="-10"/>
      <point x="656" y="16"/>
      <point x="579" y="65" type="curve"/>
      <point x="579" y="297" type="line"/>
      <point x="159" y="297" type="line"/>
      <point x="159" y="0" type="line"/>
      <point x="113" y="0" type="line"/>
      <point x="113" y="646" type="line"/>
      <point x="178" y="702"/>
      <point x="274" y="730"/>
      <point x="369" y="730" type="curve" smooth="yes"/>
      <point x="452" y="730"/>
      <point x="535" y="710"/>
      <point x="598" y="667" type="curve"/>
      <point x="670" y="708"/>
      <point x="751" y="730"/>
      <point x="838" y="730" type="curve" smooth="yes"/>
      <point x="930" y="730"/>
      <point x="1017" y="710"/>
      <point x="1101" y="658" type="curve"/>
      <point x="1101" y="527" type="line"/>
      <point x="1055" y="527" type="line"/>
      <point x="1055" y="631" type="line"/>
      <point x="986" y="670"/>
      <point x="920" y="687"/>
      <point x="838" y="687" type="curve" smooth="yes"/>
      <point x="756" y="687"/>
      <point x="691" y="668"/>
      <point x="625" y="630" type="curve"/>
      <point x="625" y="393" type="line"/>
      <point x="938" y="393" type="line"/>
      <point x="938" y="350" type="line"/>
      <point x="625" y="350" type="line"/>
      <point x="625" y="90" type="line"/>
      <point x="691" y="52"/>
      <point x="756" y="33"/>
      <point x="838" y="33" type="curve" smooth="yes"/>
      <point x="919" y="33"/>
      <point x="985" y="49"/>
      <point x="1055" y="89" type="curve"/>
      <point x="1055" y="193" type="line"/>
      <point x="1101" y="193" type="line"/>
    </contour>
    <contour>
      <point x="579" y="339" type="line"/>
      <point x="579" y="624" type="line"/>
      <point x="523" y="668"/>
      <point x="446" y="687"/>
      <point x="369" y="687" type="curve" smooth="yes"/>
      <point x="292" y="687"/>
      <point x="216" y="668"/>
      <point x="159" y="624" type="curve"/>
      <point x="159" y="339" type="line"/>
    </contour>
  </outline>
</glyph>
<glyph name="Eth" format="1">
  <advance width="794"/>
  <unicode hex="00D0"/>
  <outline>
    <contour>
      <point x="689" y="130" type="line"/>
      <point x="623" y="52"/>
      <point x="525" y="0"/>
      <point x="365" y="0" type="curve" smooth="yes"/>
      <point x="140" y="0" type="line"/>
      <point x="140" y="350" type="line"/>
      <point x="60" y="350" type="line"/>
      <point x="60" y="393" type="line"/>
      <point x="140" y="393" type="line"/>
      <point x="140" y="720" type="line"/>
      <point x="365" y="720" type="line" smooth="yes"/>
      <point x="523" y="720"/>
      <point x="621" y="669"/>
      <point x="689" y="590" type="curve"/>
    </contour>
    <contour>
      <point x="643" y="151" type="curve"/>
      <point x="643" y="570" type="line"/>
      <point x="586" y="635"/>
      <point x="498" y="677"/>
      <point x="365" y="677" type="curve" smooth="yes"/>
      <point x="186" y="677" type="line"/>
      <point x="186" y="393" type="line"/>
      <point x="310" y="393" type="line"/>
      <point x="310" y="350" type="line"/>
      <point x="186" y="350" type="line"/>
      <point x="186" y="43" type="line"/>
      <point x="365" y="43" type="line" smooth="yes"/>
      <point x="497" y="43"/>
      <point x="585" y="85"/>
    </contour>
  </outline>
</glyph>
<glyph name="Oslash" format="1">
  <advance width="796"/>
  <unicode hex="00D8"/>
  <outline>
    <contour>
      <point x="691" y="97" type="line"/>
      <point x="608" y="25"/>
      <point x="510" y="-10"/>
      <point x="398" y="-10" type="curve" smooth="yes"/>
      <point x="341" y="-10"/>
      <point x="288" y="0"/>
      <point x="239" y="19" type="curve"/>
      <point x="191" y="-70" type="line"/>
      <point x="144" y="-70" type="line"/>
      <point x="200" y="34" type="line"/>
      <point x="167" y="51"/>
      <point x="135" y="71"/>
      <point x="105" y="97" type="curve"/>
      <point x="105" y="623" type="line"/>
      <point x="188" y="695"/>
      <point x="285" y="730"/>
      <point x="398" y="730" type="curve" smooth="yes"/>
      <point x="455" y="730"/>
      <point x="508" y="721"/>
      <point x="557" y="701" type="curve"/>
      <point x="605" y="790" type="line"/>
      <point x="652" y="790" type="line"/>
      <point x="596" y="686" type="line"/>
      <point x="629" y="670"/>
      <point x="661" y="649"/>
      <point x="691" y="623" type="curve"/>
    </contour>
    <contour>
      <point x="645" y="119" type="curve"/>
      <point x="645" y="602" type="line"/>
      <point x="624" y="620"/>
      <point x="600" y="636"/>
      <point x="576" y="647" type="curve"/>
      <point x="258" y="57" type="line"/>
      <point x="301" y="40"/>
      <point x="347" y="32"/>
      <point x="398" y="32" type="curve" smooth="yes"/>
      <point x="495" y="32"/>
      <point x="575" y="60"/>
    </contour>
    <contour>
      <point x="537" y="663" type="line"/>
      <point x="495" y="680"/>
      <point x="449" y="688"/>
      <point x="398" y="688" type="curve" smooth="yes"/>
      <point x="302" y="688"/>
      <point x="221" y="660"/>
      <point x="151" y="602" type="curve"/>
      <point x="151" y="119" type="line"/>
      <point x="173" y="100"/>
      <point x="196" y="85"/>
      <point x="220" y="72" type="curve"/>
    </contour>
  </outline>
</glyph>
<glyph name="Thorn" format="1">
  <advance width="671"/>
  <unicode hex="00DE"/>
  <outline>
    <contour>
      <point x="599" y="266" type="line"/>
      <point x="532" y="188"/>
      <point x="457" y="158"/>
      <point x="337" y="158" type="curve" smooth="yes"/>
      <point x="166" y="158" type="line"/>
      <point x="166" y="0" type="line"/>
      <point x="120" y="0" type="line"/>
      <point x="120" y="720" type="line"/>
      <point x="166" y="720" type="line"/>
      <point x="166" y="582" type="line"/>
      <point x="337" y="582" type="line" smooth="yes"/>
      <point x="457" y="582"/>
      <point x="532" y="553"/>
      <point x="599" y="475" type="curve"/>
    </contour>
    <contour>
      <point x="553" y="287" type="curve"/>
      <point x="553" y="454" type="line"/>
      <point x="498" y="518"/>
      <point x="430" y="539"/>
      <point x="337" y="539" type="curve" smooth="yes"/>
      <point x="166" y="539" type="line"/>
      <point x="166" y="201" type="line"/>
      <point x="337" y="201" type="line" smooth="yes"/>
      <point x="429" y="201"/>
      <point x="496" y="222"/>
    </contour>
  </outline>
</glyph>
<glyph name="germandbls" format="1">
  <advance width="520"/>
  <unicode hex="00DF"/>
  <outline>
    <contour>
      <point x="444" y="70" type="line"/>
      <point x="399" y="15"/>
      <point x="320" y="-4"/>
      <point x="242" y="-5" type="curve"/>
      <point x="242" y="35" type="line"/>
      <point x="297" y="35"/>
      <point x="365" y="48"/>
      <point x="400" y="87" type="curve"/>
      <point x="400" y="275" type="line"/>
      <point x="371" y="321"/>
      <point x="320" y="352"/>
      <point x="244" y="352" type="curve" smooth="yes"/>
      <point x="136" y="352" type="line"/>
      <point x="136" y="0" type="line"/>
      <point x="92" y="0" type="line"/>
      <point x="92" y="674" type="line"/>
      <point x="136" y="708"/>
      <point x="191" y="728"/>
      <point x="264" y="728" type="curve" smooth="yes"/>
      <point x="335" y="728"/>
      <point x="390" y="708"/>
      <point x="435" y="674" type="curve"/>
      <point x="435" y="448" type="line"/>
      <point x="408" y="411"/>
      <point x="372" y="384"/>
      <point x="320" y="372" type="curve"/>
      <point x="374" y="359"/>
      <point x="411" y="336"/>
      <point x="444" y="292" type="curve"/>
    </contour>
    <contour>
      <point x="391" y="463" type="curve"/>
      <point x="391" y="653" type="line"/>
      <point x="357" y="678"/>
      <point x="313" y="688"/>
      <point x="264" y="688" type="curve" smooth="yes"/>
      <point x="215" y="688"/>
      <point x="171" y="678"/>
      <point x="136" y="653" type="curve"/>
      <point x="136" y="391" type="line"/>
      <point x="243" y="391" type="line" smooth="yes"/>
      <point x="317" y="391"/>
      <point x="362" y="420"/>
    </contour>
  </outline>
</glyph>
<glyph name="ae" format="1">
  <advance width="825"/>
  <unicode hex="00E6"/>
  <outline>
    <contour>
      <point x="746" y="45" type="line"/>
      <point x="695" y="7"/>
      <point x="635" y="-10"/>
      <point x="568" y="-10" type="curve" smooth="yes"/>
      <point x="511" y="-10"/>
      <point x="459" y="3"/>
      <point x="413" y="31" type="curve"/>
      <point x="368" y="4"/>
      <point x="317" y="-10"/>
      <point x="255" y="-10" type="curve" smooth="yes"/>
      <point x="184" y="-10"/>
      <point x="129" y="5"/>
      <point x="78" y="42" type="curve"/>
      <point x="78" y="226" type="line"/>
      <point x="125" y="261"/>
      <point x="184" y="279"/>
      <point x="251" y="279" type="curve" smooth="yes"/>
      <point x="308" y="279"/>
      <point x="348" y="267"/>
      <point x="390" y="247" type="curve"/>
      <point x="390" y="415" type="line"/>
      <point x="350" y="442"/>
      <point x="304" y="451"/>
      <point x="256" y="451" type="curve" smooth="yes"/>
      <point x="209" y="451"/>
      <point x="165" y="444"/>
      <point x="123" y="417" type="curve"/>
      <point x="123" y="345" type="line"/>
      <point x="80" y="345" type="line"/>
      <point x="80" y="440" type="line"/>
      <point x="130" y="475"/>
      <point x="189" y="490"/>
      <point x="256" y="490" type="curve" smooth="yes"/>
      <point x="314" y="490"/>
      <point x="367" y="476"/>
      <point x="414" y="448" type="curve"/>
      <point x="458" y="476"/>
      <point x="510" y="490"/>
      <point x="568" y="490" type="curve" smooth="yes"/>
      <point x="636" y="490"/>
      <point x="696" y="472"/>
      <point x="745" y="433" type="curve"/>
      <point x="745" y="225" type="line"/>
      <point x="432" y="225" type="line"/>
      <point x="432" y="67" type="line"/>
      <point x="473" y="38"/>
      <point x="523" y="30"/>
      <point x="568" y="30" type="curve" smooth="yes"/>
      <point x="613" y="30"/>
      <point x="661" y="37"/>
      <point x="702" y="67" type="curve"/>
      <point x="702" y="139" type="line"/>
      <point x="746" y="139" type="line"/>
    </contour>
    <contour>
      <point x="702" y="262" type="line"/>
      <point x="702" y="411" type="line"/>
      <point x="663" y="439"/>
      <point x="615" y="450"/>
      <point x="568" y="450" type="curve" smooth="yes"/>
      <point x="521" y="450"/>
      <point x="473" y="440"/>
      <point x="432" y="411" type="curve"/>
      <point x="432" y="262" type="line"/>
    </contour>
    <contour>
      <point x="390" y="64" type="curve"/>
      <point x="390" y="207" type="line"/>
      <point x="351" y="228"/>
      <point x="310" y="240"/>
      <point x="255" y="241" type="curve" smooth="yes"/>
      <point x="209" y="241"/>
      <point x="161" y="233"/>
      <point x="119" y="204" type="curve"/>
      <point x="119" y="64" type="line"/>
      <point x="158" y="38"/>
      <point x="205" y="29"/>
      <point x="255" y="29" type="curve" smooth="yes"/>
      <point x="305" y="29"/>
      <point x="351" y="37"/>
    </contour>
  </outline>
</glyph>
<glyph name="ccedilla" format="1">
  <advance width="529"/>
  <unicode hex="00E7"/>
  <outline>
    <contour>
      <point x="457" y="52" type="line"/>
      <point x="411" y="14"/>
      <point x="350" y="-6"/>
      <point x="290" y="-9" type="curve"/>
      <point x="290" y="-89" type="line"/>
      <point x="259" y="-126"/>
      <point x="216" y="-136"/>
      <point x="173" y="-136" type="curve" smooth="yes"/>
      <point x="165" y="-136" type="line"/>
      <point x="165" y="-97" type="line"/>
      <point x="173" y="-97" type="line" smooth="yes"/>
      <point x="203" y="-97"/>
      <point x="229" y="-92"/>
      <point x="248" y="-71" type="curve"/>
      <point x="248" y="-9" type="line"/>
      <point x="189" y="-6"/>
      <point x="128" y="13"/>
      <point x="81" y="52" type="curve"/>
      <point x="81" y="428" type="line"/>
      <point x="132" y="471"/>
      <point x="202" y="490"/>
      <point x="269" y="490" type="curve" smooth="yes"/>
      <point x="335" y="490"/>
      <point x="405" y="471"/>
      <point x="457" y="428" type="curve"/>
      <point x="457" y="336" type="line"/>
      <point x="413" y="336" type="line"/>
      <point x="413" y="406" type="line"/>
      <point x="372" y="439"/>
      <point x="316" y="449"/>
      <point x="269" y="449" type="curve" smooth="yes"/>
      <point x="222" y="449"/>
      <point x="166" y="440"/>
      <point x="125" y="406" type="curve"/>
      <point x="125" y="74" type="line"/>
      <point x="165" y="41"/>
      <point x="221" y="31"/>
      <point x="269" y="31" type="curve" smooth="yes"/>
      <point x="316" y="31"/>
      <point x="372" y="40"/>
      <point x="413" y="74" type="curve"/>
      <point x="413" y="145" type="line"/>
      <point x="457" y="145" type="line"/>
    </contour>
  </outline>
</glyph>
<glyph name="eth" format="1">
  <advance width="566"/>
  <unicode hex="00F0"/>
  <outline>
    <contour>
      <point x="547" y="586" type="line"/>
      <point x="477" y="586" type="line"/>
      <point x="477" y="58" type="line"/>
      <point x="431" y="16"/>
      <point x="356" y="-10"/>
      <point x="279" y="-10" type="curve" smooth="yes"/>
      <point x="204" y="-10"/>
      <point x="128" y="15"/>
      <point x="81" y="58" type="curve"/>
      <point x="81" y="422" type="line"/>
      <point x="130" y="468"/>
      <point x="206" y="490"/>
      <point x="277" y="490" type="curve" smooth="yes"/>
      <point x="336" y="490"/>
      <point x="391" y="474"/>
      <point x="433" y="450" type="curve"/>
      <point x="433" y="586" type="line"/>
      <point x="294" y="586" type="line"/>
      <point x="294" y="624" type="line"/>
      <point x="433" y="624" type="line"/>
      <point x="433" y="720" type="line"/>
      <point x="477" y="720" type="line"/>
      <point x="477" y="624" type="line"/>
      <point x="547" y="624" type="line"/>
    </contour>
    <contour>
      <point x="433" y="80" type="curve"/>
      <point x="433" y="404" type="line"/>
      <point x="392" y="433"/>
      <point x="340" y="449"/>
      <point x="279" y="449" type="curve" smooth="yes"/>
      <point x="228" y="449"/>
      <point x="164" y="435"/>
      <point x="125" y="401" type="curve"/>
      <point x="125" y="80" type="line"/>
      <point x="163" y="46"/>
      <point x="227" y="31"/>
      <point x="279" y="31" type="curve" smooth="yes"/>
      <point x="330" y="31"/>
      <point x="394" y="45"/>
    </contour>
  </outline>
</glyph>
<glyph name="oslash" format="1">
  <advance width="558"/>
  <unicode hex="00F8"/>
  <outline>
    <contour>
      <point x="477" y="58" type="line"/>
      <point x="431" y="16"/>
      <point x="356" y="-10"/>
      <point x="279" y="-10" type="curve" smooth="yes"/>
      <point x="247" y="-10"/>
      <point x="214" y="-6"/>
      <point x="183" y="4" type="curve"/>
      <point x="147" y="-70" type="line"/>
      <point x="105" y="-70" type="line"/>
      <point x="148" y="16" type="line"/>
      <point x="123" y="27"/>
      <point x="100" y="41"/>
      <point x="81" y="58" type="curve"/>
      <point x="81" y="422" type="line"/>
      <point x="127" y="465"/>
      <point x="202" y="490"/>
      <point x="279" y="490" type="curve" smooth="yes"/>
      <point x="310" y="490"/>
      <point x="344" y="486"/>
      <point x="375" y="476" type="curve"/>
      <point x="411" y="550" type="line"/>
      <point x="453" y="550" type="line"/>
      <point x="410" y="464" type="line"/>
      <point x="436" y="453"/>
      <point x="458" y="439"/>
      <point x="477" y="422" type="curve"/>
    </contour>
    <contour>
      <point x="433" y="78" type="curve"/>
      <point x="433" y="402" type="line"/>
      <point x="421" y="412"/>
      <point x="407" y="421"/>
      <point x="392" y="426" type="curve"/>
      <point x="201" y="39" type="line"/>
      <point x="228" y="33"/>
      <point x="257" y="29"/>
      <point x="279" y="29" type="curve" smooth="yes"/>
      <point x="330" y="29"/>
      <point x="394" y="44"/>
    </contour>
    <contour>
      <point x="356" y="441" type="line"/>
      <point x="330" y="447"/>
      <point x="301" y="451"/>
      <point x="279" y="451" type="curve" smooth="yes"/>
      <point x="228" y="451"/>
      <point x="164" y="437"/>
      <point x="125" y="402" type="curve"/>
      <point x="125" y="78" type="line"/>
      <point x="137" y="68"/>
      <point x="151" y="59"/>
      <point x="166" y="53" type="curve"/>
    </contour>
  </outline>
</glyph>
<glyph name="thorn" format="1">
  <advance width="558"/>
  <unicode hex="00FE"/>
  <outline>
    <contour>
      <point x="484" y="58" type="line"/>
      <point x="435" y="13"/>
      <point x="360" y="-10"/>
      <point x="289" y="-10" type="curve" smooth="yes"/>
      <point x="229" y="-10"/>
      <point x="175" y="7"/>
      <point x="133" y="30" type="curve"/>
      <point x="133" y="-175" type="line"/>
      <point x="89" y="-175" type="line"/>
      <point x="89" y="720" type="line"/>
      <point x="133" y="720" type="line"/>
      <point x="133" y="450" type="line"/>
      <point x="175" y="474"/>
      <point x="229" y="490"/>
      <point x="289" y="490" type="curve" smooth="yes"/>
      <point x="360" y="490"/>
      <point x="435" y="468"/>
      <point x="484" y="422" type="curve"/>
    </contour>
    <contour>
      <point x="441" y="80" type="curve"/>
      <point x="441" y="401" type="line"/>
      <point x="402" y="435"/>
      <point x="338" y="449"/>
      <point x="287" y="449" type="curve" smooth="yes"/>
      <point x="225" y="449"/>
      <point x="174" y="433"/>
      <point x="133" y="404" type="curve"/>
      <point x="133" y="76" type="line"/>
      <point x="174" y="48"/>
      <point x="225" y="31"/>
      <point x="287" y="31" type="curve" smooth="yes"/>
      <point x="338" y="31"/>
      <point x="402" y="45"/>
    </contour>
  </outline>
</glyph>
<glyph name="dotlessi" format="1">
  <advance width="234"/>
  <unicode hex="0131"/>
  <outline>
    <contour>
      <point x="139" y="0" type="line"/>
      <point x="95" y="0" type="line"/>
      <point x="95" y="480" type="line"/>
      <point x="139" y="480" type="line"/>
    </contour>
  </outline>
</glyph>
<glyph name="Lslash" format="1">
  <advance width="643"/>
  <unicode hex="0141"/>
  <outline>
    <contour>
      <point x="581" y="0" type="line"/>
      <point x="130" y="0" type="line"/>
      <point x="130" y="308" type="line"/>
      <point x="62" y="275" type="line"/>
      <point x="62" y="321" type="line"/>
      <point x="130" y="355" type="line"/>
      <point x="130" y="720" type="line"/>
      <point x="175" y="720" type="line"/>
      <point x="175" y="377" type="line"/>
      <point x="352" y="466" type="line"/>
      <point x="352" y="420" type="line"/>
      <point x="175" y="331" type="line"/>
      <point x="175" y="43" type="line"/>
      <point x="581" y="43" type="line"/>
    </contour>
  </outline>
</glyph>
<glyph name="lslash" format="1">
  <advance width="254"/>
  <unicode hex="0142"/>
  <outline>
    <contour>
      <point x="213" y="359" type="line"/>
      <point x="149" y="326" type="line"/>
      <point x="149" y="0" type="line"/>
      <point x="105" y="0" type="line"/>
      <point x="105" y="304" type="line"/>
      <point x="41" y="272" type="line"/>
      <point x="41" y="319" type="line"/>
      <point x="105" y="351" type="line"/>
      <point x="105" y="720" type="line"/>
      <point x="149" y="720" type="line"/>
      <point x="149" y="373" type="line"/>
      <point x="213" y="405" type="line"/>
    </contour>
  </outline>
</glyph>
<glyph name="OE" format="1">
  <advance width="1245"/>
  <unicode hex="0152"/>
  <outline>
    <contour>
      <point x="1141" y="62" type="line"/>
      <point x="1058" y="12"/>
      <point x="971" y="-10"/>
      <point x="878" y="-10" type="curve" smooth="yes"/>
      <point x="791" y="-10"/>
      <point x="710" y="12"/>
      <point x="639" y="53" type="curve"/>
      <point x="564" y="11"/>
      <point x="483" y="-10"/>
      <point x="385" y="-10" type="curve" smooth="yes"/>
      <point x="280" y="-10"/>
      <point x="189" y="16"/>
      <point x="105" y="70" type="curve"/>
      <point x="105" y="650" type="line"/>
      <point x="188" y="704"/>
      <point x="279" y="730"/>
      <point x="385" y="730" type="curve" smooth="yes"/>
      <point x="483" y="730"/>
      <point x="564" y="709"/>
      <point x="638" y="667" type="curve"/>
      <point x="710" y="708"/>
      <point x="791" y="730"/>
      <point x="878" y="730" type="curve" smooth="yes"/>
      <point x="970" y="730"/>
      <point x="1057" y="710"/>
      <point x="1141" y="658" type="curve"/>
      <point x="1141" y="527" type="line"/>
      <point x="1095" y="527" type="line"/>
      <point x="1095" y="631" type="line"/>
      <point x="1026" y="670"/>
      <point x="960" y="687"/>
      <point x="878" y="687" type="curve" smooth="yes"/>
      <point x="796" y="687"/>
      <point x="731" y="668"/>
      <point x="665" y="630" type="curve"/>
      <point x="665" y="393" type="line"/>
      <point x="978" y="393" type="line"/>
      <point x="978" y="350" type="line"/>
      <point x="665" y="350" type="line"/>
      <point x="665" y="90" type="line"/>
      <point x="731" y="52"/>
      <point x="796" y="33"/>
      <point x="878" y="33" type="curve" smooth="yes"/>
      <point x="959" y="33"/>
      <point x="1025" y="49"/>
      <point x="1095" y="89" type="curve"/>
      <point x="1095" y="193" type="line"/>
      <point x="1141" y="193" type="line"/>
    </contour>
    <contour>
      <point x="619" y="94" type="curve"/>
      <point x="619" y="626" type="line"/>
      <point x="550" y="666"/>
      <point x="476" y="687"/>
      <point x="385" y="687" type="curve" smooth="yes"/>
      <point x="295" y="687"/>
      <point x="221" y="666"/>
      <point x="151" y="624" type="curve"/>
      <point x="151" y="96" type="line"/>
      <point x="220" y="54"/>
      <point x="294" y="33"/>
      <point x="385" y="33" type="curve" smooth="yes"/>
      <point x="476" y="33"/>
      <point x="550" y="53"/>
    </contour>
  </outline>
</glyph>
<glyph name="oe" format="1">
  <advance width="847"/>
  <unicode hex="0153"/>
  <outline>
    <contour>
      <point x="768" y="45" type="line"/>
      <point x="718" y="7"/>
      <point x="658" y="-10"/>
      <point x="591" y="-10" type="curve" smooth="yes"/>
      <point x="533" y="-10"/>
      <point x="480" y="3"/>
      <point x="433" y="33" type="curve"/>
      <point x="389" y="5"/>
      <point x="331" y="-10"/>
      <point x="269" y="-10" type="curve" smooth="yes"/>
      <point x="194" y="-10"/>
      <point x="128" y="11"/>
      <point x="81" y="49" type="curve"/>
      <point x="81" y="431" type="line"/>
      <point x="127" y="468"/>
      <point x="192" y="490"/>
      <point x="269" y="490" type="curve" smooth="yes"/>
      <point x="331" y="490"/>
      <point x="389" y="475"/>
      <point x="434" y="447" type="curve"/>
      <point x="479" y="476"/>
      <point x="531" y="490"/>
      <point x="590" y="490" type="curve" smooth="yes"/>
      <point x="659" y="490"/>
      <point x="718" y="472"/>
      <point x="768" y="433" type="curve"/>
      <point x="768" y="225" type="line"/>
      <point x="455" y="225" type="line"/>
      <point x="455" y="67" type="line"/>
      <point x="496" y="38"/>
      <point x="545" y="30"/>
      <point x="591" y="30" type="curve" smooth="yes"/>
      <point x="635" y="30"/>
      <point x="683" y="37"/>
      <point x="725" y="67" type="curve"/>
      <point x="725" y="139" type="line"/>
      <point x="768" y="139" type="line"/>
    </contour>
    <contour>
      <point x="725" y="262" type="line"/>
      <point x="725" y="411" type="line"/>
      <point x="686" y="439"/>
      <point x="638" y="450"/>
      <point x="590" y="450" type="curve" smooth="yes"/>
      <point x="543" y="450"/>
      <point x="496" y="440"/>
      <point x="455" y="411" type="curve"/>
      <point x="455" y="262" type="line"/>
    </contour>
    <contour>
      <point x="413" y="71" type="curve"/>
      <point x="413" y="409" type="line"/>
      <point x="374" y="438"/>
      <point x="321" y="450"/>
      <point x="269" y="450" type="curve" smooth="yes"/>
      <point x="218" y="450"/>
      <point x="164" y="438"/>
      <point x="125" y="409" type="curve"/>
      <point x="125" y="71" type="line"/>
      <point x="163" y="43"/>
      <point x="217" y="30"/>
      <point x="269" y="30" type="curve" smooth="yes"/>
      <point x="320" y="30"/>
      <point x="374" y="42"/>
    </contour>
  </outline>
</glyph>
<glyph name="florin" format="1">
  <advance width="356"/>
  <unicode hex="0192"/>
  <outline>
    <contour>
      <point x="306" y="684" type="line"/>
      <point x="276" y="684" type="line" smooth="yes"/>
      <point x="236" y="684"/>
      <point x="203" y="667"/>
      <point x="181" y="640" type="curve"/>
      <point x="181" y="480" type="line"/>
      <point x="296" y="480" type="line"/>
      <point x="296" y="440" type="line"/>
      <point x="181" y="440" type="line"/>
      <point x="181" y="-112" type="line"/>
      <point x="148" y="-157"/>
      <point x="97" y="-180"/>
      <point x="42" y="-180" type="curve" smooth="yes"/>
      <point x="12" y="-180" type="line"/>
      <point x="12" y="-139" type="line"/>
      <point x="42" y="-139" type="line" smooth="yes"/>
      <point x="82" y="-139"/>
      <point x="115" y="-122"/>
      <point x="137" y="-95" type="curve"/>
      <point x="137" y="440" type="line"/>
      <point x="63" y="440" type="line"/>
      <point x="63" y="480" type="line"/>
      <point x="137" y="480" type="line"/>
      <point x="137" y="657" type="line"/>
      <point x="170" y="702"/>
      <point x="221" y="725"/>
      <point x="276" y="725" type="curve" smooth="yes"/>
      <point x="306" y="725" type="line"/>
    </contour>
  </outline>
</glyph>
<glyph name="circumflex" format="1">
  <advance width="500"/>
  <unicode hex="02C6"/>
  <outline>
    <contour>
      <point x="406" y="555" type="line"/>
      <point x="354" y="555" type="line"/>
      <point x="250" y="673" type="line"/>
      <point x="146" y="555" type="line"/>
      <point x="94" y="555" type="line"/>
      <point x="222" y="702" type="line"/>
      <point x="278" y="702" type="line"/>
    </contour>
  </outline>
</glyph>
<glyph name="caron" format="1">
  <advance width="500"/>
  <unicode hex="02C7"/>
  <outline>
    <contour>
      <point x="406" y="702" type="line"/>
      <point x="278" y="555" type="line"/>
      <point x="222" y="555" type="line"/>
      <point x="94" y="702" type="line"/>
      <point x="146" y="702" type="line"/>
      <point x="250" y="584" type="line"/>
      <point x="354" y="702" type="line"/>
    </contour>
  </outline>
</glyph>
<glyph name="breve" format="1">
  <advance width="500"/>
  <unicode hex="02D8"/>
  <outline>
    <contour>
      <point x="388" y="604" type="line"/>
      <point x="354" y="573"/>
      <point x="301" y="555"/>
      <point x="250" y="555" type="curve" smooth="yes"/>
      <point x="199" y="555"/>
      <point x="146" y="573"/>
      <point x="112" y="604" type="curve"/>
      <point x="112" y="702" type="line"/>
      <point x="153" y="702" type="line"/>
      <point x="153" y="619" type="line"/>
      <point x="179" y="599"/>
      <point x="216" y="590"/>
      <point x="250" y="590" type="curve" smooth="yes"/>
      <point x="284" y="590"/>
      <point x="321" y="599"/>
      <point x="347" y="619" type="curve"/>
      <point x="347" y="702" type="line"/>
      <point x="388" y="702" type="line"/>
    </contour>
  </outline>
</glyph>
<glyph name="dotaccent" format="1">
  <advance width="500"/>
  <unicode hex="02D9"/>
  <outline>
    <contour>
      <point x="274" y="555" type="line"/>
      <point x="226" y="555" type="line"/>
      <point x="226" y="665" type="line"/>
      <point x="274" y="665" type="line"/>
    </contour>
  </outline>
</glyph>
<glyph name="ring" format="1">
  <advance width="500"/>
  <unicode hex="02DA"/>
  <outline>
    <contour>
      <point x="382" y="596" type="line"/>
      <point x="349" y="570"/>
      <point x="298" y="555"/>
      <point x="250" y="555" type="curve" smooth="yes"/>
      <point x="202" y="555"/>
      <point x="151" y="570"/>
      <point x="118" y="596" type="curve"/>
      <point x="118" y="669" type="line"/>
      <point x="151" y="695"/>
      <point x="202" y="710"/>
      <point x="250" y="710" type="curve" smooth="yes"/>
      <point x="298" y="710"/>
      <point x="349" y="695"/>
      <point x="382" y="669" type="curve"/>
    </contour>
    <contour>
      <point x="348" y="610" type="curve"/>
      <point x="348" y="655" type="line"/>
      <point x="322" y="674"/>
      <point x="283" y="681"/>
      <point x="250" y="681" type="curve" smooth="yes"/>
      <point x="217" y="681"/>
      <point x="178" y="674"/>
      <point x="152" y="655" type="curve"/>
      <point x="152" y="610" type="line"/>
      <point x="178" y="591"/>
      <point x="217" y="584"/>
      <point x="250" y="584" type="curve" smooth="yes"/>
      <point x="283" y="584"/>
      <point x="322" y="591"/>
    </contour>
  </outline>
</glyph>
<glyph name="ogonek" format="1">
  <advance width="500"/>
  <unicode hex="02DB"/>
  <outline>
    <contour>
      <point x="353" y="-136" type="line"/>
      <point x="345" y="-136" type="line" smooth="yes"/>
      <point x="302" y="-136"/>
      <point x="259" y="-126"/>
      <point x="228" y="-89" type="curve"/>
      <point x="228" y="4" type="line"/>
      <point x="270" y="4" type="line"/>
      <point x="270" y="-71" type="line"/>
      <point x="289" y="-92"/>
      <point x="315" y="-97"/>
      <point x="345" y="-97" type="curve" smooth="yes"/>
      <point x="353" y="-97" type="line"/>
    </contour>
  </outline>
</glyph>
<glyph name="tilde" format="1">
  <advance width="500"/>
  <unicode hex="02DC"/>
  <outline>
    <contour>
      <point x="416" y="702" type="line"/>
      <point x="334" y="555" type="line"/>
      <point x="291" y="555" type="line"/>
      <point x="191" y="668" type="line"/>
      <point x="127" y="555" type="line"/>
      <point x="84" y="555" type="line"/>
      <point x="166" y="702" type="line"/>
      <point x="209" y="702" type="line"/>
      <point x="309" y="589" type="line"/>
      <point x="373" y="702" type="line"/>
    </contour>
  </outline>
</glyph>
<glyph name="hungarumlaut" format="1">
  <advance width="500"/>
  <unicode hex="02DD"/>
  <outline>
    <contour>
      <point x="421" y="702" type="line"/>
      <point x="316" y="555" type="line"/>
      <point x="263" y="555" type="line"/>
      <point x="364" y="702" type="line"/>
    </contour>
    <contour>
      <point x="237" y="702" type="line"/>
      <point x="132" y="555" type="line"/>
      <point x="79" y="555" type="line"/>
      <point x="180" y="702" type="line"/>
    </contour>
  </outline>
</glyph>
<glyph name="endash" format="1">
  <advance width="540"/>
  <unicode hex="2013"/>
  <outline>
    <contour>
      <point x="484" y="288" type="line"/>
      <point x="56" y="288" type="line"/>
      <point x="56" y="332" type="line"/>
      <point x="484" y="332" type="line"/>
    </contour>
  </outline>
</glyph>
<glyph name="emdash" format="1">
  <advance width="722"/>
  <unicode hex="2014"/>
  <outline>
    <contour>
      <point x="666" y="288" type="line"/>
      <point x="56" y="288" type="line"/>
      <point x="56" y="332" type="line"/>
      <point x="666" y="332" type="line"/>
    </contour>
  </outline>
</glyph>
<glyph name="quoteleft" format="1">
  <advance width="228"/>
  <unicode hex="2018"/>
  <unicode hex="02BB"/>
  <outline>
    <contour>
      <point x="154" y="480" type="line"/>
      <point x="108" y="480" type="line"/>
      <point x="73" y="720" type="line"/>
      <point x="119" y="720" type="line"/>
    </contour>
  </outline>
</glyph>
<glyph name="quoteright" format="1">
  <advance width="228"/>
  <unicode hex="2019"/>
  <unicode hex="02BC"/>
  <outline>
    <contour>
      <point x="154" y="720" type="line"/>
      <point x="119" y="480" type="line"/>
      <point x="73" y="480" type="line"/>
      <point x="108" y="720" type="line"/>
    </contour>
  </outline>
</glyph>
<glyph name="quotesinglbase" format="1">
  <advance width="229"/>
  <unicode hex="201A"/>
  <outline>
    <contour>
      <point x="144" y="107" type="line"/>
      <point x="109" y="-133" type="line"/>
      <point x="63" y="-133" type="line"/>
      <point x="98" y="107" type="line"/>
    </contour>
  </outline>
</glyph>
<glyph name="quotedblright" format="1">
  <advance width="434"/>
  <unicode hex="201D"/>
  <outline>
    <contour>
      <point x="360" y="720" type="line"/>
      <point x="325" y="480" type="line"/>
      <point x="279" y="480" type="line"/>
      <point x="314" y="720" type="line"/>
    </contour>
    <contour>
      <point x="154" y="720" type="line"/>
      <point x="119" y="480" type="line"/>
      <point x="73" y="480" type="line"/>
      <point x="108" y="720" type="line"/>
    </contour>
  </outline>
</glyph>
<glyph name="quotedblbase" format="1">
  <advance width="434"/>
  <unicode hex="201E"/>
  <outline>
    <contour>
      <point x="350" y="107" type="line"/>
      <point x="315" y="-133" type="line"/>
      <point x="269" y="-133" type="line"/>
      <point x="304" y="107" type="line"/>
    </contour>
    <contour>
      <point x="144" y="107" type="line"/>
      <point x="109" y="-133" type="line"/>
      <point x="63" y="-133" type="line"/>
      <point x="98" y="107" type="line"/>
    </contour>
  </outline>
</glyph>
<glyph name="dagger" format="1">
  <advance width="496"/>
  <unicode hex="2020"/>
  <outline>
    <contour>
      <point x="450" y="439" type="line"/>
      <point x="270" y="439" type="line"/>
      <point x="270" y="0" type="line"/>
      <point x="226" y="0" type="line"/>
      <point x="226" y="439" type="line"/>
      <point x="46" y="439" type="line"/>
      <point x="46" y="480" type="line"/>
      <point x="226" y="480" type="line"/>
      <point x="226" y="720" type="line"/>
      <point x="270" y="720" type="line"/>
      <point x="270" y="480" type="line"/>
      <point x="450" y="480" type="line"/>
    </contour>
  </outline>
</glyph>
<glyph name="daggerdbl" format="1">
  <advance width="496"/>
  <unicode hex="2021"/>
  <outline>
    <contour>
      <point x="450" y="239" type="line"/>
      <point x="270" y="239" type="line"/>
      <point x="270" y="0" type="line"/>
      <point x="226" y="0" type="line"/>
      <point x="226" y="239" type="line"/>
      <point x="46" y="239" type="line"/>
      <point x="46" y="279" type="line"/>
      <point x="226" y="279" type="line"/>
      <point x="226" y="440" type="line"/>
      <point x="46" y="440" type="line"/>
      <point x="46" y="480" type="line"/>
      <point x="226" y="480" type="line"/>
      <point x="226" y="720" type="line"/>
      <point x="270" y="720" type="line"/>
      <point x="270" y="480" type="line"/>
      <point x="450" y="480" type="line"/>
      <point x="450" y="440" type="line"/>
      <point x="270" y="440" type="line"/>
      <point x="270" y="279" type="line"/>
      <point x="450" y="279" type="line"/>
    </contour>
  </outline>
</glyph>
<glyph name="bullet" format="1">
  <advance width="490"/>
  <unicode hex="2022"/>
  <outline>
    <contour>
      <point x="387" y="265" type="line"/>
      <point x="351" y="231"/>
      <point x="295" y="216"/>
      <point x="245" y="216" type="curve" smooth="yes"/>
      <point x="196" y="216"/>
      <point x="140" y="231"/>
      <point x="103" y="265" type="curve"/>
      <point x="103" y="480" type="line"/>
      <point x="140" y="514"/>
      <point x="196" y="529"/>
      <point x="245" y="529" type="curve" smooth="yes"/>
      <point x="295" y="529"/>
      <point x="351" y="514"/>
      <point x="387" y="480" type="curve"/>
    </contour>
  </outline>
</glyph>
<glyph name="ellipsis" format="1">
  <advance width="684"/>
  <unicode hex="2026"/>
  <outline>
    <contour>
      <point x="594" y="0" type="line"/>
      <point x="546" y="0" type="line"/>
      <point x="546" y="107" type="line"/>
      <point x="594" y="107" type="line"/>
    </contour>
    <contour>
      <point x="366" y="0" type="line"/>
      <point x="318" y="0" type="line"/>
      <point x="318" y="107" type="line"/>
      <point x="366" y="107" type="line"/>
    </contour>
    <contour>
      <point x="138" y="0" type="line"/>
      <point x="90" y="0" type="line"/>
      <point x="90" y="107" type="line"/>
      <point x="138" y="107" type="line"/>
    </contour>
  </outline>
</glyph>
<glyph name="perthousand" format="1">
  <advance width="1566"/>
  <unicode hex="2030"/>
  <outline>
    <contour>
      <point x="1479" y="60" type="line"/>
      <point x="1432" y="14"/>
      <point x="1372" y="-10"/>
      <point x="1304" y="-10" type="curve" smooth="yes"/>
      <point x="1235" y="-10"/>
      <point x="1176" y="14"/>
      <point x="1129" y="60" type="curve"/>
      <point x="1129" y="317" type="line"/>
      <point x="1176" y="362"/>
      <point x="1235" y="386"/>
      <point x="1304" y="386" type="curve" smooth="yes"/>
      <point x="1372" y="386"/>
      <point x="1432" y="362"/>
      <point x="1479" y="317" type="curve"/>
    </contour>
    <contour>
      <point x="1019" y="60" type="line"/>
      <point x="972" y="14"/>
      <point x="912" y="-10"/>
      <point x="844" y="-10" type="curve" smooth="yes"/>
      <point x="776" y="-10"/>
      <point x="716" y="14"/>
      <point x="670" y="60" type="curve"/>
      <point x="670" y="317" type="line"/>
      <point x="716" y="362"/>
      <point x="776" y="386"/>
      <point x="844" y="386" type="curve" smooth="yes"/>
      <point x="912" y="386"/>
      <point x="972" y="362"/>
      <point x="1019" y="317" type="curve"/>
    </contour>
    <contour>
      <point x="763" y="720" type="line"/>
      <point x="392" y="0" type="line"/>
      <point x="346" y="0" type="line"/>
      <point x="717" y="720" type="line"/>
    </contour>
    <contour>
      <point x="439" y="404" type="line"/>
      <point x="393" y="358"/>
      <point x="333" y="334"/>
      <point x="265" y="334" type="curve" smooth="yes"/>
      <point x="196" y="334"/>
      <point x="136" y="358"/>
      <point x="90" y="404" type="curve"/>
      <point x="90" y="661" type="line"/>
      <point x="136" y="706"/>
      <point x="196" y="730"/>
      <point x="265" y="730" type="curve" smooth="yes"/>
      <point x="333" y="730"/>
      <point x="393" y="706"/>
      <point x="439" y="661" type="curve"/>
    </contour>
    <contour>
      <point x="1436" y="77" type="curve"/>
      <point x="1436" y="299" type="line"/>
      <point x="1396" y="335"/>
      <point x="1351" y="347"/>
      <point x="1304" y="347" type="curve" smooth="yes"/>
      <point x="1257" y="347"/>
      <point x="1212" y="335"/>
      <point x="1171" y="299" type="curve"/>
      <point x="1171" y="77" type="line"/>
      <point x="1212" y="41"/>
      <point x="1257" y="29"/>
      <point x="1304" y="29" type="curve" smooth="yes"/>
      <point x="1351" y="29"/>
      <point x="1396" y="41"/>
    </contour>
    <contour>
      <point x="976" y="77" type="curve"/>
      <point x="976" y="299" type="line"/>
      <point x="937" y="335"/>
      <point x="892" y="347"/>
      <point x="844" y="347" type="curve" smooth="yes"/>
      <point x="797" y="347"/>
      <point x="752" y="335"/>
      <point x="712" y="299" type="curve"/>
      <point x="712" y="77" type="line"/>
      <point x="752" y="41"/>
      <point x="797" y="29"/>
      <point x="844" y="29" type="curve" smooth="yes"/>
      <point x="892" y="29"/>
      <point x="937" y="41"/>
    </contour>
    <contour>
      <point x="397" y="421" type="curve"/>
      <point x="397" y="643" type="line"/>
      <point x="357" y="679"/>
      <point x="312" y="691"/>
      <point x="265" y="691" type="curve" smooth="yes"/>
      <point x="217" y="691"/>
      <point x="172" y="679"/>
      <point x="132" y="643" type="curve"/>
      <point x="132" y="421" type="line"/>
      <point x="172" y="385"/>
      <point x="217" y="373"/>
      <point x="265" y="373" type="curve" smooth="yes"/>
      <point x="312" y="373"/>
      <point x="357" y="385"/>
    </contour>
  </outline>
</glyph>
<glyph name="guilsinglleft" format="1">
  <advance width="346"/>
  <unicode hex="2039"/>
  <outline>
    <contour>
      <point x="279" y="-10" type="line"/>
      <point x="51" y="220" type="line"/>
      <point x="51" y="260" type="line"/>
      <point x="279" y="490" type="line"/>
      <point x="279" y="433" type="line"/>
      <point x="89" y="240" type="line"/>
      <point x="279" y="48" type="line"/>
    </contour>
  </outline>
</glyph>
<glyph name="guilsinglright" format="1">
  <advance width="346"/>
  <unicode hex="203A"/>
  <outline>
    <contour>
      <point x="295" y="220" type="line"/>
      <point x="67" y="-10" type="line"/>
      <point x="67" y="48" type="line"/>
      <point x="257" y="240" type="line"/>
      <point x="67" y="433" type="line"/>
      <point x="67" y="490" type="line"/>
      <point x="295" y="260" type="line"/>
    </contour>
  </outline>
</glyph>
<glyph name="fraction" format="1">
  <advance width="476"/>
  <unicode hex="2044"/>
  <unicode hex="2215"/>
  <outline>
    <contour>
      <point x="458" y="720" type="line"/>
      <point x="68" y="0" type="line"/>
      <point x="18" y="0" type="line"/>
      <point x="408" y="720" type="line"/>
    </contour>
  </outline>
</glyph>
<glyph name="Euro" format="1">
  <advance width="752"/>
  <unicode hex="20AC"/>
  <outline>
    <contour>
      <point x="166" y="420" type="line"/>
      <point x="166" y="300" type="line"/>
      <point x="387" y="300" type="line"/>
      <point x="387" y="256" type="line"/>
      <point x="166" y="256" type="line"/>
      <point x="166" y="106" type="line"/>
      <point x="231" y="58"/>
      <point x="297" y="33"/>
      <point x="386" y="33" type="curve" smooth="yes"/>
      <point x="475" y="33"/>
      <point x="542" y="58"/>
      <point x="606" y="106" type="curve"/>
      <point x="606" y="193" type="line"/>
      <point x="652" y="193" type="line"/>
      <point x="652" y="84" type="line"/>
      <point x="575" y="22"/>
      <point x="483" y="-10"/>
      <point x="386" y="-10" type="curve" smooth="yes"/>
      <point x="289" y="-10"/>
      <point x="198" y="22"/>
      <point x="120" y="84" type="curve"/>
      <point x="120" y="256" type="line"/>
      <point x="40" y="256" type="line"/>
      <point x="40" y="300" type="line"/>
      <point x="120" y="300" type="line"/>
      <point x="120" y="420" type="line"/>
      <point x="40" y="420" type="line"/>
      <point x="40" y="464" type="line"/>
      <point x="120" y="464" type="line"/>
      <point x="120" y="637" type="line"/>
      <point x="198" y="698"/>
      <point x="289" y="730"/>
      <point x="386" y="730" type="curve" smooth="yes"/>
      <point x="483" y="730"/>
      <point x="575" y="698"/>
      <point x="652" y="637" type="curve"/>
      <point x="652" y="527" type="line"/>
      <point x="606" y="527" type="line"/>
      <point x="606" y="614" type="line"/>
      <point x="542" y="662"/>
      <point x="475" y="687"/>
      <point x="386" y="687" type="curve" smooth="yes"/>
      <point x="297" y="687"/>
      <point x="231" y="662"/>
      <point x="166" y="614" type="curve"/>
      <point x="166" y="464" type="line"/>
      <point x="387" y="464" type="line"/>
      <point x="387" y="420" type="line"/>
    </contour>
  </outline>
</glyph>
<glyph name="uni2117" format="1">
  <advance width="836"/>
  <unicode hex="2117"/>
  <outline>
    <contour>
      <point x="731" y="92" type="line"/>
      <point x="651" y="23"/>
      <point x="535" y="-10"/>
      <point x="418" y="-10" type="curve" smooth="yes"/>
      <point x="300" y="-10"/>
      <point x="184" y="23"/>
      <point x="105" y="92" type="curve"/>
      <point x="105" y="628" type="line"/>
      <point x="184" y="697"/>
      <point x="300" y="730"/>
      <point x="418" y="730" type="curve" smooth="yes"/>
      <point x="535" y="730"/>
      <point x="651" y="697"/>
      <point x="731" y="628" type="curve"/>
    </contour>
    <contour>
      <point x="693" y="109" type="curve"/>
      <point x="693" y="611" type="line"/>
      <point x="624" y="667"/>
      <point x="517" y="695"/>
      <point x="418" y="695" type="curve" smooth="yes"/>
      <point x="320" y="695"/>
      <point x="213" y="668"/>
      <point x="143" y="611" type="curve"/>
      <point x="143" y="109" type="line"/>
      <point x="213" y="52"/>
      <point x="320" y="25"/>
      <point x="418" y="25" type="curve" smooth="yes"/>
      <point x="517" y="25"/>
      <point x="624" y="53"/>
    </contour>
    <contour>
      <point x="565" y="383" type="line"/>
      <point x="528" y="340"/>
      <point x="487" y="322"/>
      <point x="420" y="322" type="curve" smooth="yes"/>
      <point x="323" y="322" type="line"/>
      <point x="323" y="162" type="line"/>
      <point x="290" y="162" type="line"/>
      <point x="290" y="559" type="line"/>
      <point x="420" y="559" type="line" smooth="yes"/>
      <point x="487" y="559"/>
      <point x="528" y="542"/>
      <point x="565" y="498" type="curve"/>
    </contour>
    <contour>
      <point x="533" y="398" type="curve"/>
      <point x="533" y="483" type="line"/>
      <point x="504" y="517"/>
      <point x="468" y="526"/>
      <point x="420" y="526" type="curve" smooth="yes"/>
      <point x="323" y="526" type="line"/>
      <point x="323" y="354" type="line"/>
      <point x="420" y="354" type="line" smooth="yes"/>
      <point x="467" y="354"/>
      <point x="503" y="364"/>
    </contour>
  </outline>
</glyph>
<glyph name="trademark" format="1">
  <advance width="903"/>
  <unicode hex="2122"/>
  <outline>
    <contour>
      <point x="825" y="311" type="line"/>
      <point x="790" y="311" type="line"/>
      <point x="790" y="653" type="line"/>
      <point x="751" y="677"/>
      <point x="695" y="689"/>
      <point x="641" y="692" type="curve"/>
      <point x="641" y="311" type="line"/>
      <point x="606" y="311" type="line"/>
      <point x="606" y="692" type="line"/>
      <point x="552" y="690"/>
      <point x="496" y="677"/>
      <point x="457" y="652" type="curve"/>
      <point x="457" y="311" type="line"/>
      <point x="422" y="311" type="line"/>
      <point x="422" y="671" type="line"/>
      <point x="477" y="708"/>
      <point x="547" y="725"/>
      <point x="623" y="725" type="curve" smooth="yes"/>
      <point x="698" y="725"/>
      <point x="769" y="708"/>
      <point x="825" y="671" type="curve"/>
    </contour>
    <contour>
      <point x="345" y="688" type="line"/>
      <point x="205" y="688" type="line"/>
      <point x="205" y="311" type="line"/>
      <point x="169" y="311" type="line"/>
      <point x="169" y="688" type="line"/>
      <point x="29" y="688" type="line"/>
      <point x="29" y="720" type="line"/>
      <point x="345" y="720" type="line"/>
    </contour>
  </outline>
</glyph>
<glyph name="radical" format="1">
  <advance width="591"/>
  <unicode hex="221A"/>
  <outline>
    <contour>
      <point x="532" y="720" type="line"/>
      <point x="292" y="0" type="line"/>
      <point x="247" y="0" type="line"/>
      <point x="61" y="311" type="line"/>
      <point x="110" y="311" type="line"/>
      <point x="266" y="49" type="line"/>
      <point x="487" y="720" type="line"/>
    </contour>
  </outline>
</glyph>
<glyph name="apple" format="1">
  <advance width="796"/>
  <unicode hex="F8FF"/>
  <outline>
    <contour>
      <point x="691" y="527" type="line"/>
      <point x="645" y="527" type="line"/>
      <point x="645" y="601" type="line"/>
      <point x="576" y="658"/>
      <point x="495" y="687"/>
      <point x="398" y="687" type="curve" smooth="yes"/>
      <point x="301" y="687"/>
      <point x="221" y="659"/>
      <point x="151" y="601" type="curve"/>
      <point x="151" y="527" type="line"/>
      <point x="105" y="527" type="line"/>
      <point x="105" y="623" type="line"/>
      <point x="188" y="695"/>
      <point x="286" y="730"/>
      <point x="398" y="730" type="curve" smooth="yes"/>
      <point x="509" y="730"/>
      <point x="608" y="695"/>
      <point x="691" y="623" type="curve"/>
    </contour>
    <contour>
      <point x="543" y="340" type="line"/>
      <point x="420" y="340" type="line"/>
      <point x="420" y="221" type="line"/>
      <point x="376" y="221" type="line"/>
      <point x="376" y="340" type="line"/>
      <point x="253" y="340" type="line"/>
      <point x="253" y="381" type="line"/>
      <point x="376" y="381" type="line"/>
      <point x="376" y="499" type="line"/>
      <point x="420" y="499" type="line"/>
      <point x="420" y="381" type="line"/>
      <point x="543" y="381" type="line"/>
    </contour>
    <contour>
      <point x="691" y="97" type="line"/>
      <point x="608" y="25"/>
      <point x="509" y="-10"/>
      <point x="398" y="-10" type="curve" smooth="yes"/>
      <point x="286" y="-10"/>
      <point x="188" y="25"/>
      <point x="105" y="97" type="curve"/>
      <point x="105" y="193" type="line"/>
      <point x="151" y="193" type="line"/>
      <point x="151" y="119" type="line"/>
      <point x="221" y="61"/>
      <point x="301" y="33"/>
      <point x="398" y="33" type="curve" smooth="yes"/>
      <point x="495" y="33"/>
      <point x="576" y="62"/>
      <point x="645" y="119" type="curve"/>
      <point x="645" y="193" type="line"/>
      <point x="691" y="193" type="line"/>
    </contour>
  </outline>
</glyph>
<glyph name="registered" format="1">
  <advance width="836"/>
  <outline>
    <contour>
      <point x="731" y="92" type="line"/>
      <point x="651" y="23"/>
      <point x="535" y="-10"/>
      <point x="418" y="-10" type="curve" smooth="yes"/>
      <point x="300" y="-10"/>
      <point x="184" y="23"/>
      <point x="105" y="92" type="curve"/>
      <point x="105" y="628" type="line"/>
      <point x="184" y="697"/>
      <point x="300" y="730"/>
      <point x="418" y="730" type="curve" smooth="yes"/>
      <point x="535" y="730"/>
      <point x="651" y="697"/>
      <point x="731" y="628" type="curve"/>
    </contour>
    <contour>
      <point x="693" y="109" type="curve"/>
      <point x="693" y="611" type="line"/>
      <point x="624" y="667"/>
      <point x="517" y="695"/>
      <point x="418" y="695" type="curve" smooth="yes"/>
      <point x="320" y="695"/>
      <point x="213" y="668"/>
      <point x="143" y="611" type="curve"/>
      <point x="143" y="109" type="line"/>
      <point x="213" y="52"/>
      <point x="320" y="25"/>
      <point x="418" y="25" type="curve" smooth="yes"/>
      <point x="517" y="25"/>
      <point x="624" y="53"/>
    </contour>
    <contour>
      <point x="561" y="163" type="line"/>
      <point x="527" y="163" type="line"/>
      <point x="527" y="298" type="line"/>
      <point x="499" y="325"/>
      <point x="463" y="336"/>
      <point x="419" y="336" type="curve" smooth="yes"/>
      <point x="310" y="336" type="line"/>
      <point x="310" y="163" type="line"/>
      <point x="277" y="163" type="line"/>
      <point x="277" y="560" type="line"/>
      <point x="415" y="560" type="line" smooth="yes"/>
      <point x="481" y="560"/>
      <point x="521" y="545"/>
      <point x="558" y="501" type="curve"/>
      <point x="558" y="389" type="line"/>
      <point x="540" y="370"/>
      <point x="516" y="358"/>
      <point x="493" y="351" type="curve"/>
      <point x="517" y="345"/>
      <point x="543" y="331"/>
      <point x="561" y="313" type="curve"/>
    </contour>
    <contour>
      <point x="525" y="403" type="curve"/>
      <point x="525" y="487" type="line"/>
      <point x="496" y="520"/>
      <point x="462" y="528"/>
      <point x="415" y="528" type="curve" smooth="yes"/>
      <point x="310" y="528" type="line"/>
      <point x="310" y="366" type="line"/>
      <point x="418" y="366" type="line" smooth="yes"/>
      <point x="465" y="366"/>
      <point x="500" y="377"/>
    </contour>
  </outline>
</glyph>
